<svg width="104" height="24" viewBox="0 0 104 24" fill="none" xmlns="http://www.w3.org/2000/svg">
<path d="M28.9164 7.61992C28.8819 8.3068 28.8474 9.92113 28.8474 10.1269C28.8131 11.0543 28.8131 14.8684 28.8474 17.2711C28.8819 18.6101 29.1888 19.5403 30.5143 20.2939C30.5143 20.2939 29.7656 21.3952 29.4929 21.8068C27.5222 20.7054 27.0459 19.0563 27.0459 17.1348V11.6977C27.0459 10.0834 27.0116 8.77922 27.0459 7.71265C26.4876 7.58388 25.9174 7.5149 25.3447 7.50689C25.3792 7.06057 25.3792 6.44324 25.448 5.9969C26.0509 5.99185 26.6529 5.94537 27.2495 5.85778C27.2135 5.56913 27.2135 5.27699 27.2495 4.98831C27.284 3.88699 27.3185 3.374 27.3844 2.58278C28.0101 2.38053 28.6232 2.14051 29.2205 1.86401C29.1545 2.68712 29.0856 4.43765 29.0168 6.01719C29.9348 5.98531 31.0594 5.8462 31.5986 5.8462C31.5801 6.39611 31.5916 6.94665 31.6331 7.49529C31.2286 7.44603 29.4586 7.61992 28.9164 7.61992Z" fill="white"/>
<path d="M37.4512 20.8096C36.2606 20.8096 34.6627 19.9169 33.8108 18.7141C32.8612 17.3404 32.3506 15.4507 32.3506 12.8046C32.3506 7.29795 34.525 5.21411 37.279 5.21411C39.8983 5.21411 40.8851 8.82243 41.0084 12.7727C38.3232 13.0104 34.9841 13.2857 34.2095 13.219C34.3099 15.0739 34.4791 16.3434 35.0242 17.407C35.5692 18.4707 36.7598 19.1256 37.5402 19.1256C38.3204 19.1256 40.122 18.7141 40.6957 18.3374C40.8556 18.7383 41.0616 19.1185 41.3097 19.4705C40.9856 20.0212 38.4696 20.8096 37.4512 20.8096ZM36.8775 6.89799C35.7557 6.89799 34.1923 8.5442 34.2955 11.6047C35.0894 11.6651 35.8874 11.6417 36.6766 11.5352C37.629 11.4308 38.6847 11.2946 39.0892 11.2251C38.8168 8.71809 38.4351 6.89799 36.8717 6.89799H36.8775Z" fill="white"/>
<path d="M48.6364 22.2528C48.6364 21.7718 48.3982 19.8125 48.3295 19.1256C47.5807 19.9169 46.0171 21.3602 44.2845 21.3602C43.2317 21.3602 41.5305 19.9517 41.5305 16.6186C41.5305 15.3492 42.2103 13.4306 43.5701 12.6683C45.8479 11.4308 47.5863 11.0192 48.3982 10.6743C48.4327 8.95858 48.295 7.85726 47.377 7.41384C46.4436 6.9594 45.4209 6.72362 44.3849 6.72404C44.3849 6.72404 44.4882 5.17928 44.4882 4.87207C45.6356 5.00829 48.0913 5.45171 48.9433 6.03137C49.7954 6.61102 50.0909 8.26591 50.0909 8.98757C50.0909 9.22812 50.1224 14.4942 50.1224 18.0214C50.1314 19.2809 50.2109 20.5388 50.3606 21.7892C49.7925 21.9427 49.1127 22.1136 48.6364 22.2528ZM45.1938 13.7001C44.3103 14.1783 43.2545 15.0043 43.2545 16.2071C43.2545 18.6098 43.8283 19.4357 44.8869 19.4357C45.9455 19.4357 47.423 18.0735 48.2836 17.1345C48.3868 16.8244 48.3868 13.0451 48.3868 12.3582C47.2998 12.7409 46.2364 13.189 45.2024 13.7001H45.1938Z" fill="white"/>
<path d="M65.5678 20.5C65.3641 20.5348 64.4203 20.674 63.7003 20.7406C63.7662 19.7118 63.8007 18.0974 63.8007 17.4077V9.66936C63.8007 8.15649 63.835 7.33337 63.0175 7.33337C62.0334 7.33337 60.0254 9.07232 59.5749 9.56502C59.6437 10.5968 59.6437 20.0769 59.6782 20.5581H57.7044C57.8078 20.3175 57.8766 18.3612 57.8766 18.1873C57.8766 17.2598 57.7389 10.1852 57.7389 9.29258C57.7389 7.26382 57.5697 7.05804 56.3447 7.05804C55.4267 7.05804 54.1013 7.67537 53.5562 7.98548C53.5562 8.7767 53.4903 18.9784 53.4903 21.1754C52.9243 21.0043 52.343 20.8897 51.7546 20.8334C51.7891 19.906 51.8236 15.7151 51.8236 15.405L51.8579 4.89307C52.357 5.03087 52.8699 5.11157 53.387 5.13362C53.387 5.13362 53.4903 6.0031 53.5907 6.37116C54.8157 5.75094 56.3447 5.30751 57.5007 5.30751C57.9076 5.29077 58.3073 5.41883 58.6303 5.66936C58.9532 5.91988 59.179 6.27697 59.268 6.67837C59.3693 7.03706 59.4272 7.4069 59.44 7.77971C60.4929 6.78271 62.2285 5.51329 63.4162 5.51329C65.1174 5.51329 65.5937 6.85228 65.5937 9.25781L65.5678 20.5Z" fill="white"/>
<path d="M68.4855 21.2881C68.5354 20.4597 68.5277 19.6288 68.4624 18.8015C70.5767 18.8015 71.7959 18.0334 71.7959 17.0103C71.7959 15.8017 70.8091 14.4309 70.0948 13.431C69.0821 12.1094 68.1152 10.6226 68.1152 9.01697C68.1152 6.1593 70.1235 5.06665 74.1398 5.06665C74.0629 5.81592 74.0552 6.57078 74.1167 7.32148C71.9796 7.36786 70.6743 7.76201 70.6743 8.77062C70.6743 9.7792 70.8608 9.97917 72.2636 12.092C73.2275 13.486 74.2861 15.0917 74.2861 16.6944C74.2803 19.5666 72.8774 20.8215 68.4855 21.2881Z" fill="white"/>
<path d="M81.9631 20.5202C81.5959 19.1724 79.1574 13.5034 78.3313 11.6428C78.2824 12.2949 78.3083 13.431 78.3083 14.2222C78.2824 16.593 78.3313 20.6824 78.3313 20.6824C77.4512 20.5033 76.5596 20.3869 75.6633 20.3346C75.7522 19.1493 76.0047 15.338 76.0276 12.3413C76.0534 9.73284 75.9157 6.50709 75.8929 5.32172C76.6395 5.31946 77.3849 5.25745 78.1218 5.13623C78.2365 5.95064 80.6749 11.6892 81.8254 14.0367C81.8254 13.4078 81.8942 9.85456 81.8025 7.83159C81.7855 7.06836 81.7164 6.30723 81.5959 5.55357C82.4545 5.51965 83.3088 5.41105 84.1492 5.22897V20.6824C83.2828 20.6129 82.6774 20.5896 81.9631 20.5202Z" fill="white"/>
<path d="M91.8891 21.2154C91.7973 20.346 91.3583 18.8969 91.2436 18.01C91.2179 17.8556 91.2026 17.6997 91.1977 17.5433L88.3002 17.6854C88.1855 18.3345 87.7495 20.4735 87.6547 21.1923C86.8778 20.8462 86.0795 20.5508 85.2651 20.3083C85.4945 19.3576 87.081 12.483 87.8183 7.64585C87.9301 6.88072 88.1396 5.762 88.1396 5.36783C88.6903 5.29828 90.1162 5.20553 90.6239 5.11279C90.8076 5.95039 94.118 19.5663 94.3734 20.6125C93.7394 20.7285 92.566 21.0068 91.8891 21.2154ZM89.5424 9.55C89.3817 10.7354 88.7592 14.7668 88.6446 15.4769C89.0605 15.4073 90.2108 15.4305 90.6927 15.361C90.4977 14.477 89.7834 10.6687 89.5308 9.55H89.5424Z" fill="white"/>
<path d="M98.0195 14.7581C98.0195 16.4971 98.0396 18.8157 98.1773 20.1256C97.3113 20.4112 96.429 20.6434 95.5352 20.8213C95.5352 18.9402 95.604 14.8943 95.5352 10.9237C95.4865 8.92396 95.3257 6.28656 95.1421 5.53012C95.8863 5.33241 96.6508 5.22346 97.42 5.20552C100.55 5.08959 103.157 6.13585 103.157 9.84271C103.169 11.8744 100.894 14.5263 98.0195 14.7581ZM97.879 7.43716C97.9019 8.08637 97.9478 9.13263 97.9708 9.99341C97.9937 10.6687 98.0396 11.828 98.0396 12.4801C98.7364 12.4347 99.3902 12.1241 99.8693 11.611C100.348 11.098 100.617 10.4205 100.622 9.71518C100.619 7.99363 99.6519 7.43716 97.879 7.43716Z" fill="white"/>
<path d="M23.2798 11.9613C23.2798 14.1969 22.6236 16.3822 21.3941 18.241C20.1647 20.0998 18.4174 21.5485 16.3731 22.4041C14.3287 23.2595 12.0791 23.4834 9.90882 23.0474C7.73851 22.6111 5.74497 21.5347 4.18027 19.9538C2.61558 18.3731 1.55 16.3591 1.1183 14.1665C0.686604 11.9739 0.908168 9.70119 1.75498 7.63581C2.60179 5.57043 4.0358 3.80512 5.8757 2.56312C7.71558 1.32112 9.87871 0.658203 12.0915 0.658203C15.0588 0.658203 17.9046 1.84907 20.0027 3.96881C22.101 6.08856 23.2798 8.96357 23.2798 11.9613Z" fill="white"/>
<path d="M9.36345 18.943L6.42297 16.6563C7.36393 15.5878 8.33452 14.5647 9.33477 13.587C9.7364 13.19 9.99171 12.9378 10.095 12.8306C9.76795 12.7823 8.83559 12.5688 7.29794 12.1901C6.18773 11.9205 5.45906 11.7177 5.1062 11.5901L6.31682 8.09196C7.88291 8.73722 9.39323 9.51275 10.8323 10.4105C10.5568 8.65065 10.4015 6.8737 10.3675 5.09229H13.8273C13.7531 6.88719 13.5779 8.67636 13.3023 10.4511C13.5605 10.3429 14.1285 10.0821 15.0063 9.6686C16.1978 9.12953 17.2956 8.67064 18.2997 8.29193L19.3094 11.8684C17.8521 12.1949 16.1663 12.5156 14.2518 12.8306L16.6014 15.5288C17.068 16.0776 17.4352 16.5239 17.703 16.8678L14.6936 18.859L12.0773 14.4072C11.2894 15.8216 10.3847 17.3335 9.36345 18.943Z" fill="#0046FD"/>
</svg>
