<svg width="1172" height="725" viewBox="0 0 1172 725" fill="none" xmlns="http://www.w3.org/2000/svg">
<path d="M0.128906 0.0776367H1171.21V724.35H0.128906V0.0776367Z" fill="#2F68FF"/>
<path d="M428.264 368.282C428.358 374.803 432.847 379.434 442.015 379.434C450.237 379.434 455.388 375.559 455.388 369.038C455.388 362.658 450.426 360.248 446.173 359.445L440.219 358.216C438.045 357.744 434.549 356.846 434.549 353.207C434.549 350.183 437.053 348.198 441.353 348.198C445.653 348.198 448.583 350.041 448.819 354.105H454.207C454.112 348.057 449.67 344.04 441.637 344.04C433.981 344.04 429.02 347.962 429.02 353.916C429.02 361.004 435.683 362.564 439.18 363.225L444.708 364.454C446.22 364.785 449.812 365.541 449.812 369.51C449.812 372.913 446.977 375.228 442.109 375.228C436.675 375.228 433.84 372.818 433.698 368.282H428.264Z" fill="white"/>
<path d="M469.969 379.387C476.254 379.387 480.696 375.748 481.169 370.266H476.254C475.829 373.291 473.324 375.134 470.016 375.134C465.763 375.134 463.023 372.204 463.023 366.581C463.023 361.241 465.48 357.933 470.016 357.933C472.946 357.933 475.451 359.303 476.159 362.469H481.074C480.601 357.177 476.254 353.633 470.158 353.633C462.645 353.633 457.872 358.831 457.872 366.581C457.872 374.283 462.645 379.387 469.969 379.387Z" fill="white"/>
<path d="M489.438 378.961V365.399C489.438 361.099 491.896 358.075 495.912 358.075C499.551 358.075 501.441 360.248 501.441 364.265V378.961H506.403V363.273C506.403 356.846 502.717 353.633 497.377 353.633C493.927 353.633 490.903 355.192 489.438 357.98V344.513H484.477V378.961H489.438Z" fill="white"/>
<path d="M532.907 367.573C533.521 359.02 529.363 353.633 521.377 353.633C514.336 353.633 509.658 358.784 509.658 366.581C509.658 374.378 514.478 379.434 521.613 379.434C527.614 379.434 532.056 376.173 532.907 371.353H527.992C527.378 373.811 525.063 375.512 521.708 375.512C517.36 375.512 514.619 372.676 514.714 367.573H532.907ZM514.714 363.887C515.045 359.965 517.596 357.508 521.282 357.508C525.11 357.508 527.662 359.87 527.851 363.887H514.714Z" fill="white"/>
<path d="M535.025 366.533C535.025 374.236 539.278 379.434 545.941 379.434C549.721 379.434 552.793 377.544 554.116 374.756V378.961H559.125V344.513H554.116V358.216C552.793 355.381 549.721 353.633 545.941 353.633C539.419 353.633 535.025 358.642 535.025 366.533ZM540.176 366.486C540.176 361.146 542.727 357.933 547.169 357.933C551.375 357.933 554.116 360.863 554.116 366.486C554.116 371.873 551.611 375.086 547.169 375.086C542.916 375.086 540.176 372.157 540.176 366.486Z" fill="white"/>
<path d="M564.301 369.794C564.301 376.221 567.893 379.434 573.138 379.434C576.493 379.434 579.47 377.874 580.888 375.086V378.961H585.85V354.105H580.888V367.667C580.888 371.968 578.525 374.992 574.603 374.992C571.106 374.992 569.263 372.818 569.263 368.802V354.105H564.301V369.794Z" fill="white"/>
<path d="M595.785 378.961V344.513H590.823V378.961H595.785Z" fill="white"/>
<path d="M622.549 367.573C623.163 359.02 619.004 353.633 611.018 353.633C603.977 353.633 599.299 358.784 599.299 366.581C599.299 374.378 604.119 379.434 611.255 379.434C617.256 379.434 621.698 376.173 622.549 371.353H617.634C617.02 373.811 614.704 375.512 611.349 375.512C607.002 375.512 604.261 372.676 604.355 367.573H622.549ZM604.355 363.887C604.686 359.965 607.238 357.508 610.924 357.508C614.752 357.508 617.303 359.87 617.492 363.887H604.355Z" fill="white"/>
<path d="M632.861 372.251C632.861 376.646 636.169 379.434 640.942 379.434C644.533 379.434 647.557 377.827 648.975 374.992C649.07 377.638 650.44 379.292 653.322 379.292C654.315 379.292 655.449 379.103 656.063 378.772V375.228C655.732 375.37 655.402 375.464 655.071 375.464C653.795 375.464 653.606 374.425 653.606 373.432V361.43C653.606 356.515 650.771 353.633 643.824 353.633C637.634 353.633 633.381 356.704 633.428 362.139H638.154C638.154 359.256 640.138 357.555 643.635 357.555C646.99 357.555 648.644 358.878 648.644 361.761V363.651L640.658 364.785C636.594 365.399 632.861 367.526 632.861 372.251ZM637.87 371.92C637.87 369.747 639.335 368.282 642.218 367.856L648.644 367.006V369.699C648.644 372.913 646.045 375.559 642.312 375.559C639.524 375.559 637.87 374.189 637.87 371.92Z" fill="white"/>
<path d="M682.218 379.434C690.394 379.434 696.442 374.85 697.387 367.526H691.906C690.866 372.44 687.133 374.756 682.218 374.756C674.894 374.756 671.444 369.51 671.444 361.713C671.444 353.727 675.083 348.766 682.218 348.766C687.275 348.766 690.913 351.176 691.906 355.995H697.387C696.442 348.671 690.394 344.04 682.218 344.04C672.437 344.04 665.916 350.892 665.916 361.713C665.916 372.346 672.2 379.434 682.218 379.434Z" fill="white"/>
<path d="M699.262 372.251C699.262 376.646 702.57 379.434 707.342 379.434C710.934 379.434 713.958 377.827 715.376 374.992C715.47 377.638 716.84 379.292 719.723 379.292C720.715 379.292 721.849 379.103 722.464 378.772V375.228C722.133 375.37 721.802 375.464 721.471 375.464C720.196 375.464 720.007 374.425 720.007 373.432V361.43C720.007 356.515 717.171 353.633 710.225 353.633C704.034 353.633 699.782 356.704 699.829 362.139H704.554C704.554 359.256 706.539 357.555 710.036 357.555C713.391 357.555 715.045 358.878 715.045 361.761V363.651L707.059 364.785C702.995 365.399 699.262 367.526 699.262 372.251ZM704.271 371.92C704.271 369.747 705.736 368.282 708.618 367.856L715.045 367.006V369.699C715.045 372.913 712.446 375.559 708.713 375.559C705.925 375.559 704.271 374.189 704.271 371.92Z" fill="white"/>
<path d="M730.461 378.961V344.513H725.499V378.961H730.461Z" fill="white"/>
<path d="M740.827 378.961V344.513H735.865V378.961H740.827Z" fill="white"/>
</svg>
