<svg width="51" height="51" viewBox="0 0 51 51" fill="none" xmlns="http://www.w3.org/2000/svg">
<path d="M6.71289 4.70337C6.44768 4.7034 6.19334 4.80876 6.00581 4.99629C5.81828 5.18382 5.71292 5.43816 5.71289 5.70337V9.56079C5.67272 9.69438 5.23372 11.1535 4.75391 12.7913C4.50326 13.6468 4.25224 14.515 4.0625 15.1956C3.96763 15.5358 3.88823 15.8281 3.83008 16.0569C3.80101 16.1713 3.77682 16.2677 3.75781 16.3557C3.7388 16.4437 3.71289 16.4415 3.71289 16.7034C3.71289 17.7323 4.11772 18.6659 4.76367 19.3772C4.72879 19.4824 4.71163 19.5926 4.71289 19.7034V45.7034C4.71292 45.9686 4.81828 46.2229 5.00581 46.4104C5.19334 46.598 5.44768 46.7033 5.71289 46.7034H11.5449C11.6529 46.7212 11.7631 46.7212 11.8711 46.7034H25.5449C25.6529 46.7212 25.7631 46.7212 25.8711 46.7034H39.5449C39.6529 46.7212 39.7631 46.7212 39.8711 46.7034H45.7129C45.9781 46.7033 46.2324 46.598 46.42 46.4104C46.6075 46.2229 46.7129 45.9686 46.7129 45.7034V19.7034C46.7141 19.5926 46.697 19.4824 46.6621 19.3772C47.3081 18.6659 47.7129 17.7323 47.7129 16.7034C47.7129 16.4415 47.687 16.4437 47.668 16.3557C47.649 16.2678 47.6248 16.1713 47.5957 16.0569C47.5376 15.8281 47.4582 15.5358 47.3633 15.1956C47.1735 14.515 46.9225 13.6468 46.6719 12.7913C46.1921 11.1535 45.7531 9.69438 45.7129 9.56079V5.70337C45.7129 5.43816 45.6075 5.18382 45.42 4.99629C45.2324 4.80876 44.9781 4.7034 44.7129 4.70337H6.71289ZM7.71289 6.70337H43.7129V8.70337H7.71289V6.70337ZM7.45898 10.7034H43.9668C44.1159 11.2008 44.3609 12.0122 44.7539 13.3538C45.0033 14.2049 45.2522 15.0682 45.4375 15.7327C45.5301 16.0649 45.607 16.3476 45.6582 16.5491C45.6784 16.6285 45.6901 16.6825 45.7012 16.7307C45.6843 17.832 44.8187 18.7034 43.7129 18.7034C42.5962 18.7034 41.7129 17.82 41.7129 16.7034C41.7142 16.4434 41.6141 16.1931 41.434 16.0056C41.2539 15.8181 41.0078 15.7081 40.748 15.699C40.4881 15.6898 40.2349 15.7822 40.0421 15.9566C39.8492 16.131 39.7318 16.3736 39.7148 16.6331C39.7134 16.6565 39.7127 16.6799 39.7129 16.7034C39.7129 17.82 38.8296 18.7034 37.7129 18.7034C36.5962 18.7034 35.7129 17.82 35.7129 16.7034C35.7163 16.4673 35.636 16.2376 35.4863 16.0549C35.4654 16.0298 35.4432 16.0057 35.4199 15.9827C35.3492 15.9117 35.2682 15.8518 35.1797 15.8049C35.179 15.8049 35.1784 15.8049 35.1777 15.8049C35.1485 15.7891 35.1185 15.7748 35.0879 15.762C34.9949 15.7247 34.8968 15.7017 34.7969 15.6936C34.7638 15.6906 34.7305 15.6893 34.6973 15.6897C34.6302 15.6908 34.5635 15.6987 34.498 15.7131C34.4657 15.72 34.4338 15.7285 34.4023 15.7385C34.3712 15.7487 34.3406 15.7605 34.3105 15.7737C34.3099 15.7743 34.3092 15.775 34.3086 15.7756C34.2598 15.7972 34.2127 15.8227 34.168 15.8518C34.1568 15.8587 34.1457 15.8659 34.1348 15.8733C34.1235 15.8822 34.1124 15.8913 34.1016 15.9006C34.0599 15.932 34.0207 15.9666 33.9844 16.0042C33.9388 16.0527 33.8983 16.1057 33.8633 16.1624C33.8456 16.1902 33.8293 16.2189 33.8145 16.2483C33.8145 16.2489 33.8145 16.2496 33.8145 16.2502C33.8 16.2795 33.7869 16.3095 33.7754 16.3401C33.7754 16.3407 33.7754 16.3414 33.7754 16.342C33.7641 16.3728 33.7543 16.4041 33.7461 16.4358C33.7461 16.4364 33.7461 16.4371 33.7461 16.4377C33.7374 16.4693 33.7302 16.5012 33.7246 16.5334C33.7246 16.5341 33.7246 16.5347 33.7246 16.5354C33.7198 16.5678 33.7165 16.6004 33.7148 16.6331C33.7148 16.6337 33.7148 16.6344 33.7148 16.635C33.7134 16.6578 33.7128 16.6806 33.7129 16.7034C33.7129 17.82 32.8296 18.7034 31.7129 18.7034C30.5962 18.7034 29.7129 17.82 29.7129 16.7034C29.7132 16.6701 29.7119 16.6369 29.709 16.6038C29.6915 16.4032 29.6139 16.2126 29.4863 16.0569C29.4863 16.0562 29.4863 16.0556 29.4863 16.0549C29.4012 15.9518 29.2963 15.8668 29.1777 15.8049C29.1485 15.7891 29.1185 15.7748 29.0879 15.762C28.9949 15.7247 28.8968 15.7017 28.7969 15.6936C28.7306 15.6876 28.6638 15.6883 28.5977 15.6956C28.5642 15.6997 28.5309 15.7056 28.498 15.7131C28.4337 15.7271 28.3709 15.7474 28.3105 15.7737C28.3099 15.7743 28.3092 15.775 28.3086 15.7756C28.2598 15.7972 28.2127 15.8227 28.168 15.8518C28.1452 15.8672 28.123 15.8835 28.1016 15.9006C28.0599 15.932 28.0207 15.9666 27.9844 16.0042C27.9159 16.0766 27.8586 16.1589 27.8145 16.2483C27.8145 16.2489 27.8145 16.2496 27.8145 16.2502C27.8 16.2795 27.7869 16.3095 27.7754 16.3401C27.7754 16.3407 27.7754 16.3414 27.7754 16.342C27.7641 16.3728 27.7543 16.4041 27.7461 16.4358C27.7461 16.4364 27.7461 16.4371 27.7461 16.4377C27.7374 16.4693 27.7302 16.5012 27.7246 16.5334C27.7246 16.5341 27.7246 16.5347 27.7246 16.5354C27.7198 16.5678 27.7165 16.6004 27.7148 16.6331C27.7148 16.6337 27.7148 16.6344 27.7148 16.635C27.7134 16.6578 27.7128 16.6806 27.7129 16.7034C27.7129 17.82 26.8296 18.7034 25.7129 18.7034C24.5962 18.7034 23.7129 17.82 23.7129 16.7034C23.7132 16.6701 23.7119 16.6369 23.709 16.6038C23.6915 16.4032 23.6139 16.2126 23.4863 16.0569C23.4863 16.0562 23.4863 16.0556 23.4863 16.0549C23.4012 15.9518 23.2963 15.8668 23.1777 15.8049C23.1485 15.7891 23.1185 15.7748 23.0879 15.762C22.9326 15.6991 22.7641 15.6763 22.5977 15.6956C22.5642 15.6997 22.5309 15.7056 22.498 15.7131C22.4337 15.7271 22.3709 15.7474 22.3105 15.7737C22.3099 15.7743 22.3092 15.775 22.3086 15.7756C22.2598 15.7972 22.2127 15.8227 22.168 15.8518C22.1568 15.8587 22.1457 15.8659 22.1348 15.8733C22.1235 15.8822 22.1124 15.8913 22.1016 15.9006C21.9806 15.9932 21.8824 16.1121 21.8145 16.2483C21.8145 16.2489 21.8145 16.2496 21.8145 16.2502C21.8 16.2795 21.7869 16.3095 21.7754 16.3401C21.7754 16.3407 21.7754 16.3414 21.7754 16.342C21.7641 16.3728 21.7543 16.4041 21.7461 16.4358C21.7461 16.4364 21.7461 16.4371 21.7461 16.4377C21.7374 16.4693 21.7302 16.5012 21.7246 16.5334C21.7246 16.5341 21.7246 16.5347 21.7246 16.5354C21.7198 16.5678 21.7165 16.6004 21.7148 16.6331C21.7148 16.6337 21.7148 16.6344 21.7148 16.635C21.7134 16.6578 21.7128 16.6806 21.7129 16.7034C21.7129 17.82 20.8296 18.7034 19.7129 18.7034C18.5962 18.7034 17.7129 17.82 17.7129 16.7034C17.7132 16.6701 17.7119 16.6369 17.709 16.6038C17.6915 16.4032 17.6139 16.2126 17.4863 16.0569C17.4863 16.0562 17.4863 16.0556 17.4863 16.0549C17.4012 15.9518 17.2963 15.8668 17.1777 15.8049C17.1485 15.7891 17.1185 15.7748 17.0879 15.762C16.9326 15.6991 16.7641 15.6763 16.5977 15.6956C16.5642 15.6997 16.5309 15.7056 16.498 15.7131C16.4337 15.7271 16.3709 15.7474 16.3105 15.7737C16.3099 15.7743 16.3092 15.775 16.3086 15.7756C16.2598 15.7972 16.2127 15.8227 16.168 15.8518C16.1568 15.8587 16.1457 15.8659 16.1348 15.8733C16.1235 15.8822 16.1124 15.8913 16.1016 15.9006C15.9806 15.9932 15.8824 16.1121 15.8145 16.2483C15.8145 16.2489 15.8145 16.2496 15.8145 16.2502C15.8 16.2795 15.7869 16.3095 15.7754 16.3401C15.7754 16.3407 15.7754 16.3414 15.7754 16.342C15.7641 16.3728 15.7543 16.4041 15.7461 16.4358C15.7461 16.4364 15.7461 16.4371 15.7461 16.4377C15.7374 16.4693 15.7302 16.5012 15.7246 16.5334C15.7246 16.5341 15.7246 16.5347 15.7246 16.5354C15.7198 16.5678 15.7165 16.6004 15.7148 16.6331C15.7148 16.6337 15.7148 16.6344 15.7148 16.635C15.7134 16.6578 15.7128 16.6806 15.7129 16.7034C15.7129 17.82 14.8296 18.7034 13.7129 18.7034C12.5962 18.7034 11.7129 17.82 11.7129 16.7034C11.7132 16.6701 11.7119 16.6369 11.709 16.6038C11.6915 16.4032 11.6139 16.2126 11.4863 16.0569C11.4863 16.0562 11.4863 16.0556 11.4863 16.0549C11.4012 15.9518 11.2963 15.8668 11.1777 15.8049C11.1485 15.7891 11.1185 15.7748 11.0879 15.762C10.9326 15.6991 10.7641 15.6763 10.5977 15.6956C10.5642 15.6997 10.5309 15.7056 10.498 15.7131C10.4337 15.7271 10.3709 15.7474 10.3105 15.7737C10.3099 15.7743 10.3092 15.775 10.3086 15.7756C10.2598 15.7972 10.2127 15.8227 10.168 15.8518C10.1568 15.8587 10.1457 15.8659 10.1348 15.8733C10.1235 15.8822 10.1124 15.8913 10.1016 15.9006C9.98064 15.9932 9.88245 16.1121 9.81445 16.2483C9.81445 16.2489 9.81445 16.2496 9.81445 16.2502C9.79997 16.2795 9.78694 16.3095 9.77539 16.3401C9.77539 16.3407 9.77539 16.3414 9.77539 16.342C9.7641 16.3728 9.75432 16.4041 9.74609 16.4358C9.74609 16.4364 9.74609 16.4371 9.74609 16.4377C9.73737 16.4693 9.7302 16.5012 9.72461 16.5334C9.72461 16.5341 9.72461 16.5347 9.72461 16.5354C9.71976 16.5678 9.7165 16.6004 9.71484 16.6331C9.71484 16.6337 9.71484 16.6344 9.71484 16.635C9.71341 16.6578 9.71276 16.6806 9.71289 16.7034C9.71289 17.82 8.82956 18.7034 7.71289 18.7034C6.60706 18.7034 5.74152 17.832 5.72461 16.7307C5.73563 16.6825 5.74739 16.6285 5.76758 16.5491C5.81881 16.3476 5.89565 16.0649 5.98828 15.7327C6.17354 15.0682 6.42252 14.2049 6.67188 13.3538C7.06491 12.0122 7.30991 11.2008 7.45898 10.7034ZM10.7129 19.3147C11.448 20.1572 12.5157 20.7034 13.7129 20.7034C14.91 20.7034 15.9777 20.1572 16.7129 19.3147C17.448 20.1572 18.5157 20.7034 19.7129 20.7034C20.91 20.7034 21.9777 20.1572 22.7129 19.3147C23.448 20.1572 24.5157 20.7034 25.7129 20.7034C26.91 20.7034 27.9777 20.1572 28.7129 19.3147C29.448 20.1572 30.5157 20.7034 31.7129 20.7034C32.91 20.7034 33.9777 20.1572 34.7129 19.3147C35.448 20.1572 36.5157 20.7034 37.7129 20.7034C38.91 20.7034 39.9777 20.1572 40.7129 19.3147C41.448 20.1572 42.5157 20.7034 43.7129 20.7034C44.0599 20.7034 44.3911 20.6432 44.7129 20.5588V44.7034H40.7129V24.7034C40.7129 24.4382 40.6075 24.1838 40.42 23.9963C40.2324 23.8088 39.9781 23.7034 39.7129 23.7034H25.8672C25.811 23.694 25.7542 23.6894 25.6973 23.6897C25.6488 23.6907 25.6005 23.6953 25.5527 23.7034H11.7129C11.4477 23.7034 11.1933 23.8088 11.0058 23.9963C10.8183 24.1838 10.7129 24.4382 10.7129 24.7034V44.7034H6.71289V20.5588C7.03466 20.6432 7.36589 20.7034 7.71289 20.7034C8.91004 20.7034 9.97774 20.1572 10.7129 19.3147ZM12.7129 25.7034H24.7129V44.7034H12.7129V25.7034ZM26.7129 25.7034H38.7129V44.7034H26.7129V25.7034ZM21.7129 33.7034C21.4477 33.7034 21.1933 33.8087 21.0058 33.9963C20.8182 34.1838 20.7129 34.4382 20.7129 34.7034C20.7129 34.9686 20.8182 35.2229 21.0058 35.4105C21.1933 35.598 21.4477 35.7034 21.7129 35.7034C21.9781 35.7034 22.2325 35.598 22.42 35.4105C22.6075 35.2229 22.7129 34.9686 22.7129 34.7034C22.7129 34.4382 22.6075 34.1838 22.42 33.9963C22.2325 33.8087 21.9781 33.7034 21.7129 33.7034ZM29.7129 33.7034C29.4477 33.7034 29.1933 33.8087 29.0058 33.9963C28.8182 34.1838 28.7129 34.4382 28.7129 34.7034C28.7129 34.9686 28.8182 35.2229 29.0058 35.4105C29.1933 35.598 29.4477 35.7034 29.7129 35.7034C29.9781 35.7034 30.2325 35.598 30.42 35.4105C30.6075 35.2229 30.7129 34.9686 30.7129 34.7034C30.7129 34.4382 30.6075 34.1838 30.42 33.9963C30.2325 33.8087 29.9781 33.7034 29.7129 33.7034Z" fill="white"/>
</svg>
