<svg xmlns="http://www.w3.org/2000/svg" viewBox="0 0 36.59 36.55"><defs><style>.cls-1{fill:#30b67d;}.cls-2{fill:#e9b030;}.cls-3{fill:#dd005b;}.cls-4{fill:#36c2ed;}</style></defs><g id="Layer_2" data-name="Layer 2"><g id="Layer_1-2" data-name="Layer 1"><rect class="cls-1" x="19.27" y="0.25" width="7.36" height="16.81" rx="3.68"/><path class="cls-1" d="M28.78,17.23V13.55a3.68,3.68,0,0,1,3.68-3.68h.45a3.68,3.68,0,0,1,3.68,3.68h0a3.68,3.68,0,0,1-3.68,3.68Z"/><rect class="cls-2" x="24.16" y="14.5" width="7.36" height="16.81" rx="3.68" transform="translate(50.75 -4.93) rotate(90)"/><path class="cls-2" d="M19.27,28.74H23a3.68,3.68,0,0,1,3.68,3.68v.45A3.68,3.68,0,0,1,23,36.55h0a3.68,3.68,0,0,1-3.68-3.68Z"/><rect class="cls-3" x="9.96" y="19.39" width="7.36" height="16.81" rx="3.68" transform="translate(27.28 55.6) rotate(-180)"/><path class="cls-3" d="M7.81,19.23v3.68a3.68,3.68,0,0,1-3.68,3.68H3.68A3.68,3.68,0,0,1,0,22.91H0a3.68,3.68,0,0,1,3.68-3.68Z"/><rect class="cls-4" x="4.9" y="5.23" width="7.36" height="16.81" rx="3.68" transform="translate(-5.06 22.22) rotate(-90)"/><path class="cls-4" d="M17.15,7.81H13.47A3.68,3.68,0,0,1,9.79,4.13V3.68A3.68,3.68,0,0,1,13.47,0h0a3.68,3.68,0,0,1,3.68,3.68Z"/></g></g></svg>
