<svg width="51" height="51" viewBox="0 0 51 51" fill="none" xmlns="http://www.w3.org/2000/svg">
<g clip-path="url(#clip0_854_136)">
<path d="M24.9658 0.678841C24.9229 0.686653 24.8799 0.698372 24.8408 0.710091H0.0595703V16.9913C0.0439453 17.0968 0.0439453 17.1984 0.0595703 17.3038V25.3976C0.000976551 25.5929 0.000976551 25.796 0.0595703 25.9913V50.7101H50.0596V25.8976C50.0869 25.7648 50.0869 25.6242 50.0596 25.4913V0.710091H25.2471C25.1572 0.686653 25.0596 0.674935 24.9658 0.678841ZM2.05957 2.71009H24.0596V18.8351L19.1846 14.2413C18.8799 13.9601 18.4307 13.8976 18.0596 14.0851L14.4033 15.9288L9.46582 9.99134C9.25098 9.7179 8.90723 9.57337 8.55957 9.61634C8.37207 9.6515 8.2002 9.73743 8.05957 9.86634L2.05957 14.9913V2.71009ZM26.0596 2.71009H48.0596V24.7101H26.0596V21.2726C26.0713 21.1788 26.0713 21.0851 26.0596 20.9913V2.71009ZM37.0596 5.14759C37.0596 5.14759 36.0127 8.26087 35.0283 8.67884C34.0439 9.09681 31.0283 7.64759 31.0283 7.64759C31.0283 7.64759 32.3564 10.671 32.0283 11.6788C31.7939 12.3859 28.6104 13.6788 28.5283 13.7101C28.6143 13.7413 31.7158 14.8624 31.9346 15.7101C32.2627 16.9835 30.9971 19.7726 30.9971 19.7726C30.9971 19.7726 33.8682 18.2101 34.8096 18.7101C35.7471 19.2101 37.0596 22.2726 37.0596 22.2726C37.0596 22.2726 38.1104 19.1593 39.0908 18.7413C40.0752 18.3234 43.0908 19.7726 43.0908 19.7726C43.0908 19.7726 41.7432 16.7413 42.0908 15.7413C42.3564 14.9757 45.5127 13.7413 45.5908 13.7101C45.5088 13.6788 42.4385 12.4796 42.1846 11.7101C41.7705 10.4601 43.1221 7.64759 43.1221 7.64759C43.1221 7.64759 40.251 9.21009 39.3096 8.71009C38.3721 8.21009 37.0596 5.14759 37.0596 5.14759ZM19.0596 6.71009C17.9541 6.71009 17.0596 7.60462 17.0596 8.71009C17.0596 9.81556 17.9541 10.7101 19.0596 10.7101C20.165 10.7101 21.0596 9.81556 21.0596 8.71009C21.0596 7.60462 20.165 6.71009 19.0596 6.71009ZM37.0596 9.80384C39.2236 9.80384 40.9658 11.546 40.9658 13.7101C40.9658 15.8742 39.2236 17.6163 37.0596 17.6163C34.8955 17.6163 33.1533 15.8742 33.1533 13.7101C33.1533 11.546 34.8955 9.80384 37.0596 9.80384ZM8.55957 12.0226L13.3721 17.8038C13.6689 18.1593 14.1768 18.2648 14.5908 18.0538L18.3096 16.1788L24.0596 21.6163V24.7101H2.05957V17.6476L8.55957 12.0226ZM2.05957 26.7101H24.0596V48.7101H2.05957V26.7101ZM26.0596 26.7101H48.0596V48.7101H26.0596V26.7101ZM15.7783 28.9601C15.5986 28.9601 15.4229 28.9679 15.2471 28.9913C14.5518 29.089 13.8994 29.3663 13.3721 29.6476C12.7002 30.007 12.5244 30.2023 12.2158 30.4601C11.7041 30.1749 10.9229 29.8038 9.96582 29.6476C8.9541 29.4796 7.68457 29.6398 6.71582 30.5851C5.48145 31.7843 5.4502 33.421 5.68457 34.5851C5.83691 35.3468 6.0166 35.5734 6.18457 35.9288C5.90723 36.1906 5.68066 36.3507 5.24707 36.9913C4.59082 37.964 3.9502 39.4327 4.52832 40.9913C4.81738 41.7726 5.3916 42.3312 5.99707 42.6788C7.39551 43.4796 8.7002 43.4054 9.46582 43.3038C9.80957 43.9679 10.5088 45.1007 11.9033 45.8976C12.4385 46.2023 13.1025 46.4367 13.8096 46.3976C14.6338 46.3507 15.3096 45.9445 15.8096 45.4601C16.3096 44.9757 16.6689 44.4093 16.9346 43.8663C17.3096 43.1007 17.3408 42.7374 17.4346 42.3663C17.8057 42.3156 18.1416 42.3077 18.9033 42.0226C20.0088 41.6085 21.3682 40.7999 21.7783 39.2101C22.1533 37.7609 21.3916 36.5265 20.6221 35.7101C20.0244 35.0773 19.5127 34.7843 19.0908 34.5226C19.1572 34.1476 19.251 33.8156 19.2158 32.9913C19.165 31.7999 18.833 30.2179 17.4033 29.3976C16.8682 29.089 16.3135 28.964 15.7783 28.9601ZM32.0596 29.7101C30.9541 29.7101 30.0596 30.6046 30.0596 31.7101C30.0596 32.8156 30.9541 33.7101 32.0596 33.7101C33.165 33.7101 34.0596 32.8156 34.0596 31.7101C34.0596 30.6046 33.165 29.7101 32.0596 29.7101ZM15.9658 30.9601C16.1221 30.9796 16.2705 31.0421 16.4033 31.1163C16.9307 31.4171 17.1807 32.1984 17.2158 33.0851C17.251 33.9718 17.0908 34.7726 17.0908 34.7726L16.9033 35.5226L17.5908 35.8663C17.5908 35.8663 17.626 35.8663 17.6846 35.8976C17.9307 36.0382 18.6455 36.5148 19.1846 37.0851C19.7236 37.6554 19.9814 38.171 19.8408 38.7101C19.6729 39.3624 19.001 39.8429 18.1846 40.1476C17.3682 40.4523 16.5908 40.5226 16.5908 40.5226L15.8721 40.5851L15.7158 41.3351C15.7158 41.3351 15.5205 42.1437 15.1221 42.9601C14.9229 43.3702 14.6924 43.7726 14.4346 44.0226C14.1768 44.2726 13.9424 44.382 13.6846 44.3976C13.4307 44.4132 13.1885 44.3429 12.9033 44.1788C11.9072 43.6085 10.9346 41.8351 10.9346 41.8351L10.6221 41.1163L9.87207 41.2726C9.87207 41.2726 7.87207 41.4796 6.96582 40.9601C6.67676 40.7921 6.52051 40.6202 6.40332 40.3038C6.1377 39.5929 6.42676 38.8234 6.90332 38.1163C7.37988 37.4093 7.93457 36.9288 7.93457 36.9288L8.59082 36.3976L8.18457 35.6476C8.18457 35.6476 7.81738 34.9992 7.65332 34.1788C7.48926 33.3585 7.49707 32.6007 8.09082 32.0226C8.53223 31.5929 9.02832 31.5148 9.65332 31.6163C10.2783 31.7179 10.958 32.0538 11.3408 32.2726C11.5635 32.4015 11.6846 32.4601 11.6846 32.4601L12.3408 32.9601L12.9346 32.3976C12.9346 32.3976 13.5244 31.8468 14.3096 31.4288C14.7002 31.2218 15.1064 31.0499 15.4658 30.9913C15.6455 30.9601 15.8096 30.9406 15.9658 30.9601ZM38.5908 33.7101C37.0752 33.7101 35.7432 34.4952 34.8096 35.6476C33.0635 35.6788 31.6221 36.7531 30.9658 38.2726C29.3096 38.6788 28.0596 40.1202 28.0596 41.8976C28.0596 43.9835 29.7627 45.7101 31.8408 45.7101H41.6846C44.1025 45.7101 46.0596 43.7023 46.0596 41.2726C46.0596 39.4835 44.9033 38.0538 43.3408 37.3663C42.7275 35.2609 40.8408 33.7101 38.5908 33.7101ZM14.3408 33.9288C13.4619 34.1593 12.9033 36.7726 12.9033 36.7726C12.9033 36.7726 11.5205 33.6359 10.5283 34.4601C9.53613 35.2843 12.5908 37.0538 12.5908 37.0538C12.5908 37.0538 9.25098 37.4796 9.65332 38.6163C10.0557 39.7531 12.7783 37.4601 12.7783 37.4601C12.7783 37.4601 12.0635 40.9445 13.3408 40.7413C14.6182 40.5382 13.1846 37.3976 13.1846 37.3976C13.1846 37.3976 16.3057 39.1437 16.4971 37.8663C16.6885 36.589 13.2783 36.9913 13.2783 36.9913C13.2783 36.9913 15.8525 34.6242 14.7471 33.9913C14.6104 33.9132 14.4658 33.8976 14.3408 33.9288ZM38.5908 35.7101C40.0088 35.7101 41.2432 36.7492 41.5283 38.1476L41.6533 38.7726L42.2783 38.9288C43.3174 39.1984 44.0596 40.132 44.0596 41.2726C44.0596 42.6359 43.001 43.7101 41.6846 43.7101H31.8408C30.8643 43.7101 30.0596 42.9132 30.0596 41.8976C30.0596 40.9171 30.7939 40.1398 31.7158 40.0851L32.4346 40.0538L32.6221 39.3663C32.9307 38.2296 33.8838 37.4484 35.1221 37.5851L35.7471 37.6788L36.0596 37.1163C36.6025 36.2413 37.5713 35.7101 38.5908 35.7101Z" fill="white"/>
</g>
<defs>
<clipPath id="clip0_854_136">
<rect width="50" height="50" fill="white" transform="translate(0.0605469 0.710083)"/>
</clipPath>
</defs>
</svg>
