<svg version="1.1" id="favicon-logo-svg" xmlns="http://www.w3.org/2000/svg" x="0" y="0" viewBox="0 0 256 256" style="enable-background:new 0 0 256 256" xml:space="preserve"><path fill="currentColor" class="fav-svg-lines" d="M62.7 98.6 136.5 56l42.6 73.7-73.7 42.6c-.1 0-42.7-73.7-42.7-73.7zm19.9 1.7c-2.4 1.4-3.2 4.4-1.8 6.8l26.2 45.4c1.4 2.4 4.4 3.2 6.8 1.8l45.4-26.2c2.4-1.4 3.2-4.4 1.8-6.8l-26.2-45.4c-1.4-2.4-4.4-3.2-6.8-1.8 0-.1-45.4 26.2-45.4 26.2z"/><path fill="currentColor" class="fav-svg-lines" d="m100.6 164.2 73.7-42.6 35 60.6c4.2 7.3 1.7 16.5-5.6 20.7l-47.5 27.4c-7.3 4.2-16.5 1.7-20.7-5.6l-34.9-60.5zm19.8 1.7c-2.4 1.4-3.2 4.4-1.8 6.8l26.8 46.4c1 1.8 3.4 2.5 5.2 1.4l47.5-27.4c1.8-1 2.5-3.4 1.4-5.2l-26.8-46.4c-1.4-2.4-4.4-3.2-6.8-1.8l-45.5 26.2z"/><path fill="currentColor" class="fav-svg-lines" d="m70.9 93.9 42.6 73.7-60.6 35c-7.3 4.2-16.5 1.7-20.7-5.6L4.9 149.5c-4.2-7.3-1.7-16.5 5.6-20.7l60.4-34.9zm-54.8 44.7c-1.8 1-2.5 3.4-1.4 5.2l27.4 47.5c1 1.8 3.4 2.5 5.2 1.4l46.4-26.8c2.4-1.4 3.2-4.4 1.8-6.8l-26.2-45.4c-1.4-2.4-4.4-3.2-6.8-1.8l-46.4 26.7zm112.1-77.8 60.7-35c7.2-4.2 16.3-1.7 20.5 5.5l27.5 47.6c4.2 7.3 1.7 16.5-5.6 20.7l-60.6 35-42.5-73.8zm19.8 1.7c-2.4 1.4-3.2 4.4-1.8 6.8l26.2 45.4c1.4 2.4 4.4 3.2 6.8 1.8l46.4-26.8c1.8-1 2.5-3.4 1.4-5.2l-26.8-46.4c-1.4-2.4-4.4-3.2-6.8-1.8L148 62.5z"/></svg>
