<svg width="102" height="34" viewBox="0 0 102 34" fill="none" xmlns="http://www.w3.org/2000/svg">
<path d="M17.9421 2.46155C19.2588 3.77827 19.9172 5.34188 19.9172 7.19353C19.9172 9.04517 19.2588 10.6088 17.9421 11.9255C16.6254 13.2422 15.0618 13.9006 13.2101 13.9006C11.3585 13.9006 9.836 13.2011 8.51928 11.8844C7.20255 10.5676 6.54419 9.00402 6.54419 7.15238C6.54419 5.30073 7.20255 3.73712 8.51928 2.4204C9.79485 1.10367 11.3996 0.445312 13.2513 0.445312C15.1029 0.445312 16.6254 1.14482 17.9421 2.46155ZM10.0829 4.02516C9.21879 4.88926 8.80731 5.9591 8.80731 7.15238C8.80731 8.38681 9.21879 9.45665 10.0829 10.3207C10.947 11.1848 12.0168 11.5963 13.2513 11.5963C14.4857 11.5963 15.5144 11.1848 16.3785 10.3207C17.2837 9.4155 17.6952 8.38681 17.6952 7.15238C17.6952 5.91795 17.2426 4.88926 16.3785 4.02516C15.5144 3.16106 14.4445 2.70843 13.2513 2.70843C12.058 2.70843 10.947 3.11991 10.0829 4.02516Z" fill="white"/>
<path d="M28.8871 9.04517L31.644 13.8594H29.0928L25.2249 7.15238H27.2C27.8172 7.15238 28.311 6.94664 28.7636 6.49402C29.2163 6.04139 29.422 5.50647 29.422 4.88926C29.422 4.27204 29.2163 3.77827 28.7636 3.32565C28.311 2.87302 27.8172 2.66729 27.2 2.66729H22.7149L22.4681 2.4204L21.3159 0.445312H27.2C28.4345 0.445312 29.4632 0.897937 30.3273 1.76204C31.1914 2.66729 31.644 3.69598 31.644 4.88926C31.644 5.83566 31.3971 6.65861 30.8622 7.39927C30.3273 8.18107 29.6689 8.71599 28.8871 9.04517Z" fill="white"/>
<path d="M45.4284 7.15223C46.2102 7.89289 46.5806 8.83928 46.5806 9.95027C46.5806 10.4852 46.4983 10.979 46.2925 11.4727C46.0868 11.9665 45.7988 12.378 45.4696 12.7072C45.0993 13.0775 44.6878 13.3244 44.2352 13.5713C43.7825 13.777 43.2476 13.8593 42.7127 13.8593H37.6927V11.6373H42.7127C42.9184 11.6373 43.1653 11.5962 43.3299 11.5139C43.5356 11.4316 43.7414 11.3081 43.8648 11.1435C44.0294 10.979 44.1529 10.8144 44.2352 10.6086C44.3174 10.4029 44.3586 10.1972 44.3586 9.99142C44.3586 9.78568 44.3174 9.53879 44.2352 9.3742C44.1529 9.16846 44.0294 9.00387 43.8648 8.83928C43.7002 8.67469 43.5356 8.55125 43.3299 8.46895C43.1242 8.38666 42.8773 8.34551 42.6715 8.34551H37.6927H35.4707V6.12354H36.8286H37.7338H42.7538C42.9596 6.12354 43.2065 6.08239 43.371 6.00009C43.5768 5.9178 43.7825 5.79435 43.906 5.62976C44.0706 5.46517 44.194 5.30058 44.2763 5.09484C44.3586 4.88911 44.3997 4.68337 44.3997 4.43648C44.3997 4.23074 44.3586 3.98386 44.2763 3.81927C44.194 3.61353 44.0706 3.44894 43.906 3.28435C43.7414 3.11976 43.5768 2.99632 43.371 2.91402C43.1653 2.83172 42.9596 2.79058 42.7538 2.79058H37.6927L35.4707 0.568604H42.7127C43.2476 0.568604 43.7414 0.650899 44.2352 0.856637C44.7289 1.06238 45.1404 1.35041 45.4696 1.72074C45.8399 2.09107 46.0868 2.4614 46.2925 2.95517C46.4983 3.40779 46.5806 3.94271 46.5806 4.47763C46.5806 5.46517 46.2102 6.41157 45.4284 7.15223Z" fill="white"/>
<path d="M54.5628 11.5964L52.3408 13.8184V0.486572L54.5628 2.70855V11.5964Z" fill="white"/>
<path d="M64.7265 0.486572V2.70855H60.2825V13.8596H58.0605V2.70855V0.486572H64.7265Z" fill="white"/>
<path d="M69.2118 11.5963L68.0597 13.8183H65.5908L72.2979 0.445312L76.783 9.4155H74.273L72.2979 5.46533L70.3228 9.4155L69.2118 11.5963ZM79.005 13.8594H76.4949L75.384 11.6375H77.8528L79.005 13.8594Z" fill="white"/>
<path d="M85.3828 0.486572V0.856901V8.59266L83.1608 10.8146V0.856901V0.486572H85.3828ZM92.0487 11.5964V13.8184H83.1196L85.3416 11.5964H92.0487Z" fill="white"/>
<path d="M3.76651 26.7294L10.4736 33.4365H7.34636L1.54454 27.6758L0.598145 26.7705L1.54454 25.8241L7.34636 20.0635H10.4736L3.76651 26.7294ZM1.54454 25.8241L7.34636 20.0635L1.54454 25.8241ZM7.34636 33.4365L1.54454 27.6758L7.34636 33.4365Z" fill="white"/>
<path d="M17.9622 31.1733L15.7402 33.3953V20.0635L17.9622 22.2855V31.1733Z" fill="white"/>
<path d="M28.1256 20.0635V22.2854H23.6817V33.4365H21.4597V22.2854V20.0635H28.1256Z" fill="white"/>
<path d="M32.8577 31.4614C32.2404 30.8442 31.7878 30.1447 31.4175 29.3217C31.0472 28.4987 30.8826 27.6346 30.8826 26.7294C30.8826 25.8241 31.0472 24.96 31.4175 24.1371C31.7878 23.3141 32.2404 22.6146 32.8577 22.0386C33.4749 21.4213 34.1744 20.9687 34.9973 20.5984C35.8203 20.2281 36.6844 20.0635 37.5896 20.0635C38.4949 20.0635 39.359 20.2281 40.1819 20.5984C41.0049 20.9687 41.7044 21.4213 42.3216 22.0386L40.7169 23.6022C39.8116 22.7381 38.7829 22.3266 37.5896 22.3266C36.9724 22.3266 36.3963 22.45 35.8614 22.6558C35.3265 22.9027 34.8327 23.1907 34.4213 23.6433C34.0098 24.0548 33.7218 24.5074 33.4749 25.0423C33.228 25.5773 33.1045 26.1533 33.1045 26.7705C33.1045 27.3878 33.228 27.9638 33.4749 28.4987C33.7218 29.0337 34.0098 29.4863 34.4624 29.8978C34.8739 30.3092 35.3265 30.6384 35.8614 30.8853C36.3963 31.091 36.9724 31.2145 37.5896 31.2145L40.1819 32.9427C39.4001 33.313 38.4949 33.4776 37.5896 33.4776C36.6844 33.4776 35.8203 33.313 34.9973 32.9427C34.1744 32.5312 33.4749 32.0374 32.8577 31.4614Z" fill="white"/>
<path d="M54.8717 20.0635V33.4365H52.6497V27.8404H45.9427V33.3953H43.7207V27.8404L45.9427 25.6184H52.6497V20.0635H54.8717Z" fill="white"/>
<path d="M67.9157 20.0635V22.2855H61.2498L59.0278 20.0635H67.9157ZM61.2498 25.6184H67.9569V27.8404H61.2498H59.0278V25.6184H61.2498ZM61.2498 31.1733H67.9569V33.3953H59.0278V33.2307L61.2498 31.1733Z" fill="white"/>
<path d="M84.1279 20.0617V33.3935L73.0181 23.3946V20.0205L81.906 28.0443V20.0617H84.1279Z" fill="white"/>
<path d="M93.9207 27.8386C92.8509 27.8386 91.9045 27.4682 91.1639 26.6864C90.4232 25.9046 90.0117 24.9994 90.0117 23.9295C90.0117 22.8597 90.3821 21.9544 91.1639 21.1726C91.9045 20.3908 92.8509 20.0205 93.9207 20.0205V22.2425C93.6739 22.2425 93.4681 22.2836 93.2624 22.3659C93.0566 22.4482 92.8921 22.5717 92.7275 22.7363C92.5629 22.9008 92.4806 23.0654 92.3571 23.2712C92.2748 23.4769 92.2337 23.6826 92.2337 23.8884C92.2337 24.341 92.3983 24.7525 92.6863 25.0817C93.0155 25.4109 93.3858 25.5754 93.8796 25.5754H97.2126C98.2824 25.5754 99.2288 25.9458 99.9695 26.7276C100.751 27.5094 101.122 28.4146 101.122 29.4845C101.122 30.5543 100.751 31.4596 99.9695 32.2414C99.2288 32.982 98.2824 33.3935 97.2126 33.3935V31.1715C97.4594 31.1715 97.6652 31.1304 97.8709 31.0481C98.0767 30.9658 98.2824 30.8423 98.4058 30.6777C98.5704 30.5132 98.6939 30.3486 98.7762 30.1428C98.8585 29.9371 98.8996 29.7314 98.8996 29.4845C98.8996 29.0318 98.735 28.6615 98.4058 28.3323C98.0767 28.0032 97.7063 27.8386 97.2126 27.8386H93.9207Z" fill="white"/>
</svg>
