<svg width="44" height="49" fill="none" xmlns="http://www.w3.org/2000/svg"><path fill-rule="evenodd" clip-rule="evenodd" d="M1.015 14.144a3.92 3.92 0 0 1 2.771-4.801l13.018-3.488a3.905 3.905 0 0 1 2.782.287 3.905 3.905 0 0 1 2.265-1.64l13.017-3.487a3.92 3.92 0 0 1 4.801 2.771l3.488 13.017a3.92 3.92 0 0 1-2.772 4.801l-13.017 3.488a3.913 3.913 0 0 1-1.669.08c.328.41.578.892.722 1.431L29.91 39.62a3.92 3.92 0 0 1-2.772 4.801L14.12 47.91a3.92 3.92 0 0 1-4.8-2.771L5.83 32.12a3.905 3.905 0 0 1 .26-2.727 3.905 3.905 0 0 1-1.589-2.232L1.015 14.144Zm18.054-4.879.01.038 3.488 13.017.01.038a1.307 1.307 0 0 1-.543 1.386c-.138.021-.276.05-.414.087L8.603 27.32a4.018 4.018 0 0 0-.402.131 1.307 1.307 0 0 1-1.174-.965L3.539 13.467a1.307 1.307 0 0 1 .924-1.6L17.48 8.38a1.307 1.307 0 0 1 1.59.886Zm6.033 12.417c.202.674.905 1.07 1.59.886l13.017-3.488a1.307 1.307 0 0 0 .924-1.6L37.145 4.463a1.307 1.307 0 0 0-1.6-.924L22.527 7.027a1.307 1.307 0 0 0-.923 1.6l3.488 13.017.01.038Zm-15.799 8.25a3.984 3.984 0 0 1-.413.088c-.452.303-.683.87-.535 1.424l3.488 13.017c.187.697.904 1.11 1.6.924l13.018-3.488a1.307 1.307 0 0 0 .924-1.6L23.897 27.28a1.307 1.307 0 0 0-1.174-.966c-.13.05-.265.094-.402.13l-13.019 3.49Z" fill="currentColor"/></svg>
