<svg width="51" height="51" viewBox="0 0 51 51" fill="none" xmlns="http://www.w3.org/2000/svg">
<path d="M18.7109 2.67554C15.9609 2.67554 13.7109 4.92554 13.7109 7.67554C13.7109 10.4255 15.9609 12.6755 18.7109 12.6755C19.1133 12.6755 19.4922 12.6091 19.8672 12.5193L20.7109 14.3005C17.1289 16.3787 14.7109 20.2459 14.7109 24.6755C14.7109 25.8279 14.875 26.9334 15.1797 27.988L11.9297 28.988C11.0391 27.6052 9.46875 26.6755 7.71094 26.6755C4.96094 26.6755 2.71094 28.9255 2.71094 31.6755C2.71094 34.4255 4.96094 36.6755 7.71094 36.6755C10.4609 36.6755 12.7109 34.4255 12.7109 31.6755C12.7109 31.3982 12.6914 31.1287 12.6484 30.863L15.8984 29.863C17.4297 33.0349 20.3242 35.4255 23.8047 36.3005L23.4922 38.6755C20.8438 38.7927 18.7109 40.9998 18.7109 43.6755C18.7109 46.4255 20.9609 48.6755 23.7109 48.6755C26.4609 48.6755 28.7109 46.4255 28.7109 43.6755C28.7109 41.5427 27.3477 39.7341 25.4609 39.0193L25.7734 36.613C26.0859 36.6365 26.3945 36.6755 26.7109 36.6755C30.0586 36.6755 33.0625 35.2693 35.2422 33.0505L39.3047 36.363C38.9336 37.0584 38.7109 37.8357 38.7109 38.6755C38.7109 41.4255 40.9609 43.6755 43.7109 43.6755C46.4609 43.6755 48.7109 41.4255 48.7109 38.6755C48.7109 35.9255 46.4609 33.6755 43.7109 33.6755C42.5078 33.6755 41.418 34.1169 40.5547 34.8318L36.5547 31.5193C37.9063 29.5779 38.7109 27.2146 38.7109 24.6755C38.7109 21.7263 37.6406 19.0193 35.8672 16.9255L38.9609 13.863C39.7539 14.3904 40.6953 14.6755 41.7109 14.6755C44.4609 14.6755 46.7109 12.4255 46.7109 9.67554C46.7109 6.92554 44.4609 4.67554 41.7109 4.67554C38.9609 4.67554 36.7109 6.92554 36.7109 9.67554C36.7109 10.6912 36.9961 11.6326 37.5234 12.4255L34.4609 15.5193C32.3672 13.7459 29.6602 12.6755 26.7109 12.6755C25.2344 12.6755 23.8281 12.9373 22.5234 13.4255L21.6797 11.6755C22.8984 10.7615 23.7109 9.30835 23.7109 7.67554C23.7109 4.92554 21.4609 2.67554 18.7109 2.67554ZM18.7109 4.67554C20.3789 4.67554 21.7109 6.00757 21.7109 7.67554C21.7109 9.34351 20.3789 10.6755 18.7109 10.6755C17.043 10.6755 15.7109 9.34351 15.7109 7.67554C15.7109 6.00757 17.043 4.67554 18.7109 4.67554ZM41.7109 6.67554C43.3789 6.67554 44.7109 8.00757 44.7109 9.67554C44.7109 11.3435 43.3789 12.6755 41.7109 12.6755C40.043 12.6755 38.7109 11.3435 38.7109 9.67554C38.7109 8.00757 40.043 6.67554 41.7109 6.67554ZM26.7109 14.6755C32.2461 14.6755 36.7109 19.1404 36.7109 24.6755C36.7109 30.2107 32.2461 34.6755 26.7109 34.6755C21.1758 34.6755 16.7109 30.2107 16.7109 24.6755C16.7109 19.1404 21.1758 14.6755 26.7109 14.6755ZM25.8359 17.6755V19.4255C23.1563 19.824 23.0547 22.238 23.0547 22.5193C23.0547 24.9959 25.0156 25.4412 26.5859 25.8005C27.9961 26.1248 28.8047 26.3591 28.8047 27.3318C28.8047 27.9138 28.5313 28.8943 26.7109 28.8943C26.6719 28.8943 25.7109 28.8787 25.1172 28.2693C24.7656 27.9099 24.6016 27.4021 24.6172 26.738L24.6484 26.2693H22.8047V26.738C22.8633 28.8748 23.8398 30.0779 25.8047 30.4255V31.6755H27.5859V30.4568C30.4414 30.0271 30.6172 27.7927 30.6172 27.3318C30.6172 24.9412 28.6563 24.4529 27.0859 24.0818C25.6758 23.7498 24.8672 23.5271 24.8672 22.613C24.8672 21.5193 25.4727 21.0193 26.7422 21.0193C28.2109 21.0193 28.5117 22.0037 28.5234 22.8318L28.5547 23.3005H30.3047L30.3359 22.863C30.3906 22.0388 30.0742 21.1091 29.4922 20.4568C29 19.906 28.3359 19.5505 27.5859 19.4255V17.6755H25.8359ZM7.71094 28.6755C9.37891 28.6755 10.7109 30.0076 10.7109 31.6755C10.7109 33.3435 9.37891 34.6755 7.71094 34.6755C6.04297 34.6755 4.71094 33.3435 4.71094 31.6755C4.71094 30.0076 6.04297 28.6755 7.71094 28.6755ZM43.7109 35.6755C45.3789 35.6755 46.7109 37.0076 46.7109 38.6755C46.7109 40.3435 45.3789 41.6755 43.7109 41.6755C42.043 41.6755 40.7109 40.3435 40.7109 38.6755C40.7109 37.0076 42.043 35.6755 43.7109 35.6755ZM23.7109 40.6755C25.3789 40.6755 26.7109 42.0076 26.7109 43.6755C26.7109 45.3435 25.3789 46.6755 23.7109 46.6755C22.043 46.6755 20.7109 45.3435 20.7109 43.6755C20.7109 42.0076 22.043 40.6755 23.7109 40.6755Z" fill="white"/>
</svg>
