<svg width="51" height="51" viewBox="0 0 51 51" fill="none" xmlns="http://www.w3.org/2000/svg">
<g clip-path="url(#clip0_854_144)">
<path d="M9.99805 1.20642L9.2793 1.89392L1.2793 9.89392L0.591797 10.6127L1.2793 11.3314L16.9043 26.9564L4.37305 39.4877C4.24414 39.6049 4.14648 39.7572 4.0918 39.9252L2.0918 47.4252C2.00195 47.7689 2.10352 48.1322 2.35352 48.3822C2.60352 48.6322 2.9668 48.7338 3.31055 48.6439L10.8105 46.6439C10.9785 46.5892 11.1309 46.4916 11.248 46.3627L45.8105 11.8002C45.8066 11.8041 46.623 10.9877 46.623 10.9877C48.5254 9.08533 48.5215 6.01111 46.623 4.11267C44.7207 2.21033 41.6504 2.21423 39.748 4.11267L26.3418 17.5189L10.7168 1.89392L9.99805 1.20642ZM9.99805 4.05017L11.623 5.67517L10.3418 6.95642L11.7793 8.39392L13.0605 7.11267L14.623 8.67517L12.3418 10.9564L13.7793 12.3939L16.0605 10.1127L17.623 11.6752L16.3418 12.9564L17.7793 14.3939L19.0605 13.1127L20.623 14.6752L18.3418 16.9564L19.7793 18.3939L22.0605 16.1127L23.623 17.6752L22.3418 18.9564L23.623 20.2377L18.3418 25.5189L3.43555 10.6127L9.99805 4.05017ZM40.3418 6.33142L44.4043 10.3939L10.0293 44.7689L5.9668 40.7064L40.3418 6.33142ZM34.0605 25.2689L33.3418 25.9564L31.3418 27.9564L32.7793 29.3939L34.0605 28.1127L35.623 29.6752L33.3418 31.9564L34.7793 33.3939L37.0605 31.1127L38.623 32.6752L37.3418 33.9564L38.7793 35.3939L40.0605 34.1127L41.623 35.6752L39.3418 37.9564L40.7793 39.3939L43.0605 37.1127L44.623 38.6752L43.3418 39.9564L44.7793 41.3939L46.0605 40.1127L46.6855 40.7377L40.123 47.3002L26.0605 33.2689L24.6543 34.6752L39.4043 49.4564L40.123 50.1439L40.8418 49.4564L48.8418 41.4564L49.5293 40.7377L48.8418 40.0189L34.0605 25.2689Z" fill="white"/>
</g>
<defs>
<clipPath id="clip0_854_144">
<rect width="50" height="50" fill="white" transform="translate(0.0605469 0.675171)"/>
</clipPath>
</defs>
</svg>
