<svg width="124" height="24" viewBox="0 0 124 24" fill="none" xmlns="http://www.w3.org/2000/svg">
<g clip-path="url(#clip0_1693_1085)">
<path d="M20.9203 0.635254H3.68609C2.92449 0.635892 2.19427 0.934419 1.65573 1.4653C1.1172 1.99618 0.814368 2.71602 0.813721 3.4668V20.4561C0.814368 21.2069 1.1172 21.9267 1.65573 22.4576C2.19427 22.9885 2.92449 23.287 3.68609 23.2876H20.9203C21.6819 23.287 22.4121 22.9885 22.9507 22.4576C23.4892 21.9267 23.792 21.2069 23.7927 20.4561V3.4668C23.792 2.71602 23.4892 1.99618 22.9507 1.4653C22.4121 0.934419 21.6819 0.635892 20.9203 0.635254ZM21.2405 20.4561C21.2405 20.5398 21.2068 20.6201 21.1467 20.6793C21.0867 20.7385 21.0052 20.7718 20.9203 20.7718H3.68609C3.60116 20.7718 3.51971 20.7385 3.45965 20.6793C3.39959 20.6201 3.36585 20.5398 3.36585 20.4561V3.4668C3.36585 3.38308 3.39959 3.30279 3.45965 3.24358C3.51971 3.18437 3.60116 3.15111 3.68609 3.15111H7.61695V15.0629C7.61759 15.4634 7.7793 15.8474 8.06661 16.1306C8.35389 16.4138 8.74339 16.5732 9.1497 16.5738H21.2405V20.4561ZM21.2405 14.058H10.1715V3.15111H14.43V8.3467C14.4296 8.54594 14.4693 8.74326 14.5466 8.92735C14.624 9.11141 14.7375 9.27858 14.8806 9.41924C15.0238 9.5599 15.1937 9.67126 15.3807 9.7469C15.5676 9.82257 15.7679 9.86103 15.97 9.86007H21.2503L21.2405 14.058ZM21.2405 7.3418H16.9821V3.15111H20.9203C21.0052 3.15111 21.0867 3.18437 21.1467 3.24358C21.2068 3.30279 21.2405 3.38308 21.2405 3.4668V7.3418Z" fill="white"/>
<path d="M29.9041 15.1089H32.6664C33.1798 17.5789 34.5096 18.5139 37.118 18.5139C39.4208 18.5139 40.7506 17.4536 40.7506 15.6872C40.7506 14.0244 38.7289 13.569 36.2746 13.1159C33.4609 12.5617 30.4663 11.6532 30.4663 8.42641C30.4663 5.53462 32.9475 3.40674 36.4286 3.40674C40.2397 3.40674 42.7209 5.24785 43.2318 9.00476H40.4964C40.137 6.55879 38.7289 5.63101 36.4017 5.63101C34.3043 5.63101 32.9989 6.68892 32.9989 8.30351C32.9989 10.094 35.2259 10.4483 37.6558 10.9013C40.445 11.4315 43.3101 12.2894 43.3101 15.5667C43.3101 18.6176 41.0317 20.7382 37.1986 20.7382C32.8718 20.7334 30.569 18.7405 29.9041 15.1089Z" fill="white"/>
<path d="M45.4099 4.00903H48.1209V6.63574H45.4099V4.00903ZM45.4857 8.54915H48.0183V20.4537H45.4857V8.54915Z" fill="white"/>
<path d="M50.1428 14.5543C50.1428 10.7709 52.4456 8.28873 55.5918 8.28873C56.3633 8.28126 57.124 8.46545 57.8041 8.82429C58.4844 9.18312 59.0618 9.70504 59.4835 10.3419V3.45703H61.9281V20.4535H59.4835V18.7088C59.0572 19.3415 58.4744 19.8565 57.7899 20.2053C57.1057 20.554 56.3422 20.7249 55.5722 20.7017C52.4725 20.7066 50.1428 18.4124 50.1428 14.5543ZM59.6082 14.5543V14.3519C59.6082 12.0071 58.3297 10.4166 56.2054 10.4166C54.1592 10.4166 52.783 11.9059 52.783 14.4772V14.6555C52.783 17.2027 54.1397 18.5883 56.2054 18.5883C58.271 18.5883 59.6082 16.9231 59.6082 14.5543Z" fill="white"/>
<path d="M64.0107 14.5783C64.0107 10.8961 66.492 8.34888 69.9193 8.34888C73.4761 8.34888 75.6004 10.696 75.6004 14.453V15.3591H66.5189C66.6704 17.4026 67.9856 18.6388 70.0219 18.6388C72.0583 18.6388 72.9554 17.6556 73.4248 16.4941L75.6518 17.352C74.8328 19.1931 73.1192 20.6559 70.0293 20.6559C66.3135 20.6559 64.0107 18.2268 64.0107 14.5783ZM73.0165 13.4939C72.9139 11.4503 71.7625 10.3611 69.8679 10.3611C68.0541 10.3611 66.7218 11.5443 66.4675 13.4939H73.0165Z" fill="white"/>
<path d="M76.1924 8.55176H78.7958L81.1231 16.8729L83.6557 8.55176H86.0856L88.6181 16.8994L90.9209 8.55176H93.5122L89.7524 20.4539H87.501L84.8657 11.5785L82.2549 20.4539H80.0181L76.1924 8.55176Z" fill="white"/>
<path d="M93.8762 17.3281C93.8762 14.6556 95.8954 14.0483 98.582 13.4724C100.631 13.0458 101.882 12.9181 102.139 12.2675V12.0819C102.139 11.0987 101.405 10.342 99.5549 10.342C97.7631 10.342 96.7926 11.1493 96.6899 12.4868V12.6362H94.1573C94.2331 9.96367 96.3819 8.34668 99.5745 8.34668C102.669 8.34668 104.51 9.70823 104.51 12.735V18.6125L104.537 20.4536H102.107V18.6631C101.286 20.0753 99.7774 20.7573 98.0369 20.7573C95.4627 20.7573 93.8762 19.3716 93.8762 17.3281ZM102.139 15.6629V14.2001C101.405 14.7038 100.117 14.9062 98.9414 15.1834C97.5602 15.5376 96.4332 15.9666 96.4332 17.2269C96.4332 18.2101 97.1666 18.8656 98.5062 18.8656C100.271 18.8656 101.934 17.986 102.139 15.6629Z" fill="white"/>
<path d="M107.153 3.45703H109.685V20.4535H107.153V3.45703Z" fill="white"/>
<path d="M112.477 3.45703H114.934V14.0988L119.845 8.55622H122.761L118.488 13.0144L123.042 20.4535H120.28L116.826 14.7302L114.934 16.8484V20.4632H112.477V3.45703Z" fill="white"/>
</g>
<defs>
<clipPath id="clip0_1693_1085">
<rect width="122.228" height="22.6524" fill="white" transform="translate(0.813721 0.635742)"/>
</clipPath>
</defs>
</svg>
