<svg width="107" height="32" viewBox="0 0 107 32" fill="none" xmlns="http://www.w3.org/2000/svg">
<path d="M72.9949 20.7605H75.1919V24.8674H79.7107V20.773H82.02V31.1089H79.7856V27.1268H75.2293V31.1089H72.9949V20.7605Z" fill="white"/>
<path d="M25.2224 31.1108V20.7874H27.5068V24.7819H32.1255V20.7998H34.285V31.1108H32.1629V27.0912H27.5442V31.1108H25.2224Z" fill="white"/>
<path d="M38.4667 29.2H44.159V31.1099H36.095C36.095 27.6646 36.095 24.2318 36.095 20.7241H44.1215V22.6215H38.4792V24.8685H42.0868V26.8532H38.4667V29.2Z" fill="white"/>
<path d="M47.1424 31.1856H44.833L49.0647 20.7874H51.6737L55.9054 31.1107H53.4088L52.3228 28.6142H48.2284L47.1424 31.1856ZM50.3879 23.3214H50.2007L48.9524 26.4296H51.5488L50.3879 23.3214Z" fill="white"/>
<path d="M66.0541 22.6586H62.6587V20.7737H71.8461V22.6586H68.3634V31.1096H66.0541V22.6586Z" fill="white"/>
<path d="M56.6293 31.1108V20.7874H58.8637V29.1384H64.5185V31.1108H56.6293Z" fill="white"/>
<path d="M67.8583 5.70557H70.6545V16.0914H68.5574V8.78885L65.2369 12.2341L61.8291 8.91368H61.6169V16.0664H59.4448V5.70557H62.2535L65.0122 8.9012L67.8583 5.70557Z" fill="white"/>
<path d="M85.7832 16.1163H83.786C82.1216 13.9443 80.4863 11.7848 78.8802 9.63769H78.6929V16.0539H76.5583V5.70557H78.6804L83.6736 12.1093V5.70557H85.7832V16.1163Z" fill="white"/>
<path d="M33.8423 5.70557H35.852L40.6954 11.947H40.8452V5.70557H42.9548V16.0664H41.0075L35.852 9.35059V16.1039H33.8423V5.70557Z" fill="white"/>
<path d="M54.2389 7.5408L52.7285 8.91392C52.3851 8.49742 51.9486 8.16746 51.4542 7.95063C50.9598 7.7338 50.4214 7.63617 49.8824 7.66563C49.2067 7.70829 48.5514 7.91387 47.9725 8.26481C47.3946 8.70606 46.9803 9.3273 46.7949 10.0304C46.6095 10.7334 46.6637 11.4782 46.9489 12.147C47.1781 12.7772 47.6013 13.3185 48.1576 13.6931C48.7138 14.0677 49.3745 14.2562 50.0447 14.2317C50.6558 14.2411 51.2511 14.0366 51.7274 13.6537C52.2038 13.2708 52.5314 12.7334 52.6536 12.1345H49.7326V10.2246H55.1127C55.3456 11.4917 55.0883 12.8 54.3931 13.8846C53.6978 14.9692 52.6165 15.7492 51.3679 16.0666C50.0967 16.4844 48.7152 16.4111 47.4954 15.8612C46.2755 15.3114 45.3057 14.3248 44.7769 13.0957C44.2131 11.9035 44.117 10.5432 44.5076 9.28352C44.8982 8.02388 45.7471 6.95658 46.8865 6.2925C48.0518 5.56241 49.4448 5.28618 50.8005 5.51635C52.1561 5.74651 53.3799 6.46703 54.2389 7.5408Z" fill="white"/>
<path d="M87.6684 5.54419C89.5648 5.5473 91.4587 5.68496 93.3356 5.95613C94.4267 6.20002 95.3982 6.81762 96.082 7.70207C96.7659 8.58652 97.1191 9.68218 97.0805 10.7995C97.1241 11.9153 96.7924 13.0136 96.1385 13.9187C95.4845 14.8239 94.546 15.4837 93.4729 15.7927C91.5755 16.4293 89.6032 16.0548 87.606 16.1422L87.6684 5.54419ZM89.9278 7.64132V14.0451C90.6643 14.0451 91.3384 14.0451 92.0124 14.0451C92.7426 13.9897 93.4264 13.6655 93.9314 13.1352C94.4363 12.6048 94.7267 11.906 94.7462 11.174C94.8475 10.4329 94.6642 9.68102 94.2335 9.06958C93.8027 8.45814 93.1563 8.03257 92.4244 7.8785C91.6255 7.71622 90.7766 7.71622 89.9278 7.64132Z" fill="white"/>
<path d="M16.1411 16.2779C15.423 16.3083 14.7063 16.1928 14.0341 15.9384C13.3619 15.684 12.7483 15.296 12.2303 14.7978C11.7122 14.2996 11.3006 13.7016 11.0201 13.0398C10.7397 12.3781 10.5963 11.6664 10.5987 10.9477C10.6052 10.2302 10.7532 9.52114 11.0341 8.86098C11.3151 8.20082 11.7235 7.60256 12.2361 7.10048C12.7486 6.5984 13.3551 6.20236 14.0209 5.93502C14.6867 5.66769 15.3987 5.53433 16.1161 5.54257C16.8357 5.51754 17.553 5.63687 18.2257 5.89352C18.8985 6.15016 19.513 6.53893 20.0331 7.03689C20.5531 7.53485 20.9682 8.13191 21.2538 8.79287C21.5394 9.45382 21.6898 10.1653 21.696 10.8853C21.72 11.6138 21.5915 12.3394 21.3187 13.0154C21.0459 13.6914 20.6347 14.3029 20.1117 14.8106C19.5886 15.3184 18.9652 15.7112 18.2815 15.9639C17.5977 16.2166 16.8686 16.3235 16.1411 16.2779ZM12.9704 10.9227C12.9571 11.351 13.0288 11.7777 13.1812 12.1782C13.3337 12.5787 13.564 12.945 13.8588 13.256C14.1535 13.567 14.507 13.8166 14.8987 13.9903C15.2904 14.164 15.7127 14.2585 16.1411 14.2681C16.5776 14.2656 17.0091 14.174 17.409 13.9989C17.8089 13.8238 18.1688 13.569 18.4668 13.25C18.7648 12.9309 18.9945 12.5545 19.142 12.1436C19.2894 11.7327 19.3514 11.296 19.3242 10.8603C19.3346 10.4384 19.2589 10.0188 19.1018 9.62712C18.9447 9.23542 18.7095 8.87982 18.4105 8.58198C18.1115 8.28415 17.755 8.05033 17.3626 7.89476C16.9703 7.7392 16.5505 7.66516 16.1286 7.67715C15.7107 7.67712 15.2969 7.76003 14.9113 7.92108C14.5257 8.08213 14.1758 8.31812 13.8821 8.61536C13.5883 8.9126 13.3565 9.26519 13.2 9.65269C13.0435 10.0402 12.9655 10.4549 12.9704 10.8728V10.9227Z" fill="white"/>
<path d="M98.8159 12.8217C100.551 14.1948 102.286 14.8814 104.271 13.7454C104.271 13.4583 104.346 13.3085 104.358 13.1712C104.371 13.0339 104.358 12.8092 104.358 12.5845C103.834 11.9479 103.11 11.9354 102.299 11.7856C101.419 11.6777 100.547 11.5109 99.6897 11.2863C99.1613 11.1237 98.7018 10.7904 98.3832 10.3386C98.0647 9.88675 97.9051 9.34197 97.9296 8.78968C97.9069 8.2556 98.0326 7.72567 98.2925 7.25859C98.5525 6.7915 98.9367 6.40549 99.4026 6.1433C100.531 5.60376 101.792 5.40497 103.031 5.57126C104.271 5.73755 105.435 6.2617 106.381 7.07952L105.282 8.65237L104.583 8.22795C103.618 7.6415 102.483 7.39948 101.362 7.54139C100.713 7.61629 100.114 8.01574 100.114 8.47761C100.114 8.93948 100.401 9.35142 101.2 9.51369C102.299 9.75087 103.41 9.91315 104.483 10.1878C105.014 10.285 105.503 10.5431 105.882 10.9271C106.262 11.3112 106.514 11.8026 106.605 12.3348C106.736 12.9035 106.694 13.4983 106.485 14.043C106.276 14.5878 105.909 15.0579 105.432 15.3932C104.602 15.9667 103.619 16.2756 102.611 16.2795C100.91 16.3717 99.2342 15.834 97.9046 14.769C97.7949 14.6665 97.6907 14.5581 97.5925 14.4445L98.8159 12.8217Z" fill="white"/>
<path d="M22.9565 5.67944H25.1161C25.1161 6.004 25.1161 6.31607 25.1161 6.62815C25.1161 8.26341 25.1161 9.8862 25.1161 11.5215C25.0723 11.8244 25.0895 12.1331 25.1666 12.4293C25.2438 12.7255 25.3794 13.0033 25.5655 13.2464C25.7516 13.4894 25.9844 13.6928 26.2502 13.8447C26.516 13.9965 26.8095 14.0936 27.1133 14.1304C27.4075 14.2097 27.7154 14.2243 28.0157 14.1733C28.3161 14.1222 28.6018 14.0068 28.8533 13.8348C29.1048 13.6628 29.316 13.4383 29.4725 13.1769C29.629 12.9155 29.727 12.6233 29.7597 12.3204C29.8846 10.6726 29.8471 9.01239 29.8846 7.32719V5.71689H32.1065C32.1065 5.99152 32.1065 6.25366 32.1065 6.5158C32.1065 8.201 32.1065 9.8862 32.1065 11.5714C32.1955 12.5441 31.9443 13.5176 31.3957 14.3257C30.847 15.1338 30.035 15.7266 29.0981 16.0028C26.7763 16.7144 24.105 16.1901 23.0689 13.5063C22.9612 13.2607 22.8937 12.9993 22.8691 12.7323C22.944 10.3855 22.9565 8.08865 22.9565 5.67944Z" fill="white"/>
<path d="M4.86912 12.2229L0.5625 5.71924H3.15895L6.055 10.0383L8.87614 5.73172H11.3727L7.14101 12.1105V16.0926H4.89408L4.86912 12.2229Z" fill="white"/>
<path d="M72.5143 5.70557H74.7238V16.0789H72.5143V5.70557Z" fill="white"/>
<path d="M70.9163 2.39754C70.9142 2.61177 70.8684 2.82332 70.7817 3.01922C70.695 3.21512 70.5691 3.39124 70.4119 3.53678C70.2547 3.68231 70.0694 3.79419 69.8674 3.86555C69.6654 3.93692 69.4509 3.96626 69.2372 3.95178C69.0234 3.93731 68.8149 3.87931 68.6244 3.78136C68.4338 3.68341 68.2653 3.54757 68.1292 3.38217C67.993 3.21676 67.8921 3.02528 67.8325 2.81948C67.773 2.61367 67.7562 2.39788 67.783 2.18533C67.8315 1.78805 68.023 1.42201 68.3216 1.15555C68.6202 0.889087 69.0056 0.740419 69.4058 0.737305C69.8186 0.77754 70.2017 0.969693 70.4808 1.27648C70.7599 1.58326 70.9151 1.98279 70.9163 2.39754Z" fill="white"/>
<path d="M61.9164 3.72135C61.8972 4.05914 61.7494 4.37676 61.5033 4.60893C61.2572 4.8411 60.9315 4.97018 60.5932 4.96964C60.2701 4.92169 59.975 4.75911 59.7618 4.51159C59.5487 4.26407 59.4317 3.94813 59.4323 3.62148C59.4318 3.46139 59.4645 3.30293 59.5282 3.15607C59.5919 3.0092 59.6853 2.87711 59.8026 2.76809C59.9198 2.65906 60.0583 2.57546 60.2094 2.52254C60.3605 2.46962 60.5209 2.44852 60.6806 2.46057C60.8445 2.4622 61.0065 2.4961 61.1573 2.56035C61.3081 2.62459 61.4448 2.71792 61.5596 2.83499C61.6743 2.95207 61.7649 3.0906 61.8261 3.24268C61.8874 3.39477 61.918 3.55742 61.9164 3.72135Z" fill="white"/>
</svg>
