<svg width="77" height="54" viewBox="0 0 77 54" fill="none" xmlns="http://www.w3.org/2000/svg">
<path d="M33.7483 4.15649H25.6157V12.2238H33.7483V4.15649Z" fill="white"/>
<path d="M43.4101 4.15649H35.2776V12.2238H43.4101V4.15649Z" fill="white"/>
<path d="M43.4101 13.7046H35.2776V21.7719H43.4101V13.7046Z" fill="#629CC4"/>
<path d="M53.0725 4.15649H44.9399V12.2238H53.0725V4.15649Z" fill="white"/>
<path d="M33.7483 13.7046H25.6157V21.7719H33.7483V13.7046Z" fill="white"/>
<path d="M33.7483 23.2524H25.6157V31.3198H33.7483V23.2524Z" fill="white"/>
<path d="M22.5421 40.1823C21.7715 40.1299 20.9981 40.2325 20.2683 40.4839C19.5386 40.7353 18.8676 41.1304 18.2956 41.6453C17.7236 42.1603 17.2623 42.7846 16.9395 43.4808C16.6167 44.177 16.439 44.9307 16.417 45.6966C16.3067 48.8696 18.8803 51.4007 22.2995 51.4736C23.0703 51.525 23.8436 51.4209 24.5727 51.1674C25.3018 50.914 25.9714 50.5165 26.5412 49.999C27.111 49.4815 27.5691 48.8547 27.8878 48.1566C28.2064 47.4585 28.3791 46.7035 28.3952 45.9373C28.4246 42.6914 25.9834 40.2844 22.5421 40.1823ZM22.4245 48.7529C21.6396 48.7529 20.8868 48.4436 20.3317 47.893C19.7767 47.3424 19.4649 46.5956 19.4649 45.817C19.4649 45.0383 19.7767 44.2916 20.3317 43.741C20.8868 43.1904 21.6396 42.8811 22.4245 42.8811C23.2094 42.8811 23.9622 43.1904 24.5173 43.741C25.0723 44.2916 25.3841 45.0383 25.3841 45.817C25.3841 46.5956 25.0723 47.3424 24.5173 47.893C23.9622 48.4436 23.2094 48.7529 22.4245 48.7529Z" fill="white"/>
<path d="M38.1012 46.8488C40.0351 45.8787 40.6674 44.7116 40.3071 42.9829C39.9689 41.4147 38.7556 40.5321 36.8291 40.5029C35.4247 40.5029 34.0202 40.5029 32.4172 40.5029V51.1013H35.2923V47.1771C36.1526 48.4827 36.7629 49.4966 37.4982 50.4813C37.6747 50.7439 37.9394 51.1086 38.1821 51.1305C39.1748 51.2034 40.1748 51.1305 41.3954 51.1305L38.1012 46.8488ZM35.3364 45.1712V42.6547C36.8071 42.5526 37.4835 42.9683 37.4835 43.9239C37.4835 44.8794 36.7482 45.2879 35.3364 45.1712Z" fill="white"/>
<path d="M44.9321 40.5466H47.6381V46.8852C47.6381 47.7532 47.7998 48.5556 48.7852 48.8911C50.1602 49.3506 51.2632 48.6869 51.3367 47.2207C51.4323 45.4556 51.3955 43.6758 51.4102 41.9106V40.5393H54.2338C54.2338 41.5459 54.2338 42.5452 54.2338 43.5445C54.2338 45.0836 54.2338 46.6445 54.0426 48.169C53.9785 49.0259 53.5937 49.8281 52.9637 50.4179C52.3338 51.0077 51.5043 51.3425 50.6381 51.3565C49.8537 51.4419 49.0622 51.4419 48.2778 51.3565C46.4469 51.1304 45.1307 50.0509 45.013 48.2638C44.8071 45.7109 44.9321 43.1579 44.9321 40.5466Z" fill="white"/>
<path d="M6.81372 40.5393H12.858V42.7932H9.60791V44.573H12.5859V46.98H9.54908V51.1231H6.81372V40.5393Z" fill="white"/>
<path d="M61.0723 51.0867H58.3369L60.087 40.5321L62.8885 40.4956L65.0724 46.134L67.0945 40.5321L69.9916 40.4956L71.8814 51.1378H69.3666L68.2122 45.4994L65.0136 51.1742L61.962 45.5504L61.0723 51.0867Z" fill="white"/>
</svg>
