<svg width="446" height="23" viewBox="0 0 446 23" fill="none" xmlns="http://www.w3.org/2000/svg">
<path fill-rule="evenodd" clip-rule="evenodd" d="M1.10145 12.5475C0.515664 11.9617 0.515664 11.012 1.10145 10.4262L10.6474 0.880257C11.2332 0.29447 12.1829 0.29447 12.7687 0.880257C13.3545 1.46604 13.3545 2.41579 12.7687 3.00158L5.78343 9.98686L439.943 9.98682L432.958 3.00154C432.372 2.41575 432.372 1.46601 432.958 0.88022C433.544 0.294433 434.493 0.294433 435.079 0.88022L444.625 10.4262C445.211 11.0119 445.211 11.9617 444.625 12.5475L435.079 22.0934C434.493 22.6792 433.544 22.6792 432.958 22.0934C432.372 21.5076 432.372 20.5579 432.958 19.9721L439.943 12.9868L5.78343 12.9869L12.7687 19.9721C13.3545 20.5579 13.3545 21.5077 12.7687 22.0935C12.1829 22.6792 11.2332 22.6792 10.6474 22.0935L1.10145 12.5475Z" fill="white"/>
</svg>
