<svg width="51" height="51" viewBox="0 0 51 51" fill="none" xmlns="http://www.w3.org/2000/svg">
<path d="M37.1605 3.67551C35.2808 3.70977 33.7707 4.25616 32.7425 5.24778C31.7143 6.2394 31.2348 7.61618 31.1995 9.06028C31.1995 9.06093 31.1995 9.06158 31.1995 9.06223C31.1768 10.0032 31.3718 10.8523 31.596 11.7868C31.3379 12.1762 31.1563 12.6486 31.2308 13.2732C31.2308 13.2738 31.2308 13.2745 31.2308 13.2751C31.3171 13.9926 31.5153 14.545 31.8441 14.9646C31.9947 15.1568 32.2153 15.1711 32.4085 15.2868C32.6126 15.9611 32.8906 16.6011 33.2796 17.113C33.5284 17.4404 33.7832 17.7328 34.0159 17.9704C34.0718 18.0274 34.1396 18.0615 34.1878 18.1111C34.1919 18.619 34.1937 19.0957 34.1566 19.6228C34.0359 19.8861 33.6656 20.2031 32.8714 20.531C32.4224 20.7163 31.8843 20.9012 31.3148 21.1013C31.3449 20.8297 31.3675 20.543 31.3714 20.2224C31.3714 20.2217 31.3714 20.2211 31.3714 20.2204C31.3824 19.2765 31.2287 18.274 30.6995 17.3904C30.209 16.5712 29.3109 15.9496 28.1898 15.7185C27.4777 15.0071 26.4765 14.6755 25.3499 14.6755C25.3441 14.6755 25.3382 14.6755 25.3323 14.6755C23.4527 14.7098 21.9426 15.2562 20.9144 16.2478C19.8862 17.2394 19.4086 18.6162 19.3734 20.0603C19.3734 20.0609 19.3734 20.0616 19.3734 20.0622C19.3648 20.4161 19.3951 20.7561 19.4378 21.0935C18.7578 20.862 18.0961 20.653 17.5491 20.447C16.7281 20.1377 16.341 19.8167 16.2444 19.6228C16.2078 19.0986 16.2089 18.6236 16.2132 18.1169C16.2616 18.0674 16.329 18.0333 16.3851 17.9763C16.6185 17.7389 16.8734 17.4481 17.1234 17.1208C17.514 16.6093 17.7931 15.9675 17.9984 15.2927C18.193 15.1767 18.4155 15.1635 18.5667 14.9704C18.8953 14.5508 19.0916 13.9976 19.178 13.281V13.279C19.2532 12.6519 19.0705 12.1755 18.8089 11.7849C18.997 11.0804 19.1844 10.3126 19.1976 9.22825C19.2085 8.28424 19.0549 7.27988 18.5257 6.39622C18.0351 5.57702 17.1372 4.95541 16.0159 4.72434C15.3041 4.01319 14.3044 3.68137 13.178 3.68137C13.1715 3.68131 13.165 3.68131 13.1585 3.68137C11.2789 3.71618 9.77047 4.26193 8.7425 5.25364C7.71452 6.24535 7.23539 7.62227 7.19953 9.06614C7.19953 9.06679 7.19953 9.06744 7.19953 9.06809C7.17678 10.0091 7.37181 10.8581 7.59601 11.7927C7.33792 12.182 7.15626 12.6544 7.23078 13.279C7.23078 13.2797 7.23078 13.2803 7.23078 13.281C7.31718 13.9988 7.51465 14.5528 7.84406 14.9724C7.99536 15.1651 8.21822 15.177 8.41242 15.2927C8.61672 15.9659 8.89105 16.6076 9.27961 17.1189C9.52837 17.4462 9.78322 17.7367 10.0159 17.9743C10.0718 18.0314 10.1396 18.0654 10.1878 18.115C10.1919 18.6255 10.1942 19.1022 10.1566 19.6325C10.0559 19.8516 9.81537 20.1002 9.23664 20.3747C8.62386 20.6655 7.76189 20.9356 6.85187 21.2673C5.94185 21.5991 4.97359 21.9942 4.11945 22.6384C3.2653 23.2826 2.53388 24.2223 2.25421 25.4626C2.21854 25.593 2.20966 25.7292 2.22811 25.8631C2.24656 25.997 2.29196 26.1258 2.36156 26.2416C2.43116 26.3575 2.52352 26.458 2.63306 26.5372C2.7426 26.6163 2.86705 26.6725 2.9989 26.7022C3.13074 26.7319 3.26724 26.7346 3.40016 26.7101C3.53307 26.6856 3.65964 26.6344 3.77222 26.5596C3.8848 26.4849 3.98105 26.388 4.05517 26.275C4.12928 26.162 4.17972 26.0351 4.20343 25.9021C4.37327 25.1488 4.74572 24.6711 5.32257 24.2361C5.89943 23.801 6.69044 23.455 7.53742 23.1462C8.38439 22.8375 9.27739 22.5679 10.0921 22.1814C10.9068 21.7948 11.7284 21.2488 12.0862 20.2868C12.1173 20.2033 12.137 20.1159 12.1448 20.0271C12.2285 19.0968 12.1976 18.4431 12.1976 17.6755C12.1974 17.4933 12.1475 17.3145 12.0532 17.1586C11.9589 17.0027 11.8238 16.8755 11.6624 16.7907C11.8254 16.8762 11.6131 16.7469 11.4456 16.5759C11.2782 16.4049 11.0697 16.1663 10.8734 15.9079C10.4806 15.3912 10.1732 14.7261 10.1566 14.57C10.1349 14.367 10.0516 14.1754 9.91791 14.0211C9.78418 13.8668 9.60642 13.7571 9.40851 13.7068C9.37536 13.6604 9.27115 13.4917 9.21711 13.0427C9.20429 12.9353 9.22097 12.8819 9.23664 12.8513C9.39541 12.7325 9.51528 12.5691 9.58101 12.382C9.64674 12.1949 9.65536 11.9925 9.60578 11.8005C9.31553 10.6835 9.17853 9.98393 9.19953 9.11497C9.22603 8.0639 9.53655 7.26674 10.1312 6.69309C10.7234 6.12172 11.668 5.71296 13.178 5.68137H13.18C14.1884 5.68211 14.7045 6.00608 14.7698 6.12083C14.8457 6.25415 14.9512 6.36823 15.0782 6.45426C15.2052 6.54028 15.3503 6.59594 15.5023 6.61692C16.2318 6.71819 16.551 6.98973 16.8109 7.42356C17.0707 7.85739 17.2056 8.51182 17.1976 9.20481C17.1838 10.3376 17.0026 11.1942 16.8226 11.7341C16.7558 11.9339 16.7539 12.1497 16.817 12.3506C16.8802 12.5516 17.0051 12.7275 17.1741 12.8532C17.1897 12.8841 17.2063 12.936 17.1937 13.0407C17.1395 13.4909 17.0352 13.6605 17.0023 13.7068C16.8044 13.7571 16.6266 13.8668 16.4929 14.0211C16.3591 14.1754 16.2759 14.367 16.2542 14.57C16.2379 14.7234 15.9303 15.3891 15.5355 15.906C15.3381 16.1644 15.1277 16.4027 14.9593 16.574C14.7909 16.7452 14.577 16.8755 14.7386 16.7907C14.5772 16.8755 14.4421 17.0027 14.3478 17.1586C14.2535 17.3145 14.2036 17.4933 14.2034 17.6755C14.2034 18.4412 14.1724 19.0968 14.2562 20.0271C14.264 20.1159 14.2837 20.2033 14.3148 20.2868C14.7491 21.4513 15.8328 21.9392 16.8441 22.32C17.7592 22.6648 18.7206 22.9349 19.5316 23.2556C19.4192 23.5469 19.3573 23.8771 19.4046 24.2732C19.4046 24.2738 19.4046 24.2745 19.4046 24.2751C19.491 24.9926 19.6872 25.545 20.0159 25.9646C20.1674 26.1578 20.3899 26.1728 20.5843 26.2888C20.7886 26.9619 21.0649 27.6018 21.4534 28.113C21.7022 28.4404 21.9551 28.7328 22.1878 28.9704C22.2436 29.0274 22.3115 29.0615 22.3597 29.1111C22.3638 29.6183 22.3654 30.0946 22.3284 30.6208C22.2034 30.8942 21.802 31.2249 20.9593 31.5642C20.3774 31.7985 19.6626 32.0264 18.9183 32.3025C19.0607 31.7159 19.1871 31.0793 19.1976 30.2224C19.2085 29.2784 19.0549 28.274 18.5257 27.3904C18.0345 26.5702 17.1353 25.9468 16.012 25.7165C15.3003 25.0077 14.302 24.6755 13.178 24.6755C13.1722 24.6755 13.1663 24.6755 13.1605 24.6755C11.2808 24.7098 9.7707 25.2562 8.7425 26.2478C7.7143 27.2394 7.23482 28.6162 7.19953 30.0603C7.19953 30.0609 7.19953 30.0616 7.19953 30.0622C7.17678 31.0032 7.37181 31.8523 7.59601 32.7868C7.33792 33.1762 7.15626 33.6486 7.23078 34.2732C7.23078 34.2738 7.23078 34.2745 7.23078 34.2751C7.31714 34.9926 7.5153 35.545 7.84406 35.9646C7.99466 36.1568 8.21532 36.1711 8.40851 36.2868C8.61259 36.9611 8.89058 37.6011 9.27961 38.113C9.52837 38.4404 9.78322 38.7328 10.0159 38.9704C10.0718 39.0274 10.1396 39.0615 10.1878 39.1111C10.1919 39.6203 10.194 40.0977 10.1566 40.6267C10.0561 40.8455 9.81338 41.0943 9.23468 41.3689C8.62198 41.6596 7.76195 41.9317 6.85187 42.2634C5.94179 42.5951 4.97172 42.9903 4.1175 43.6345C3.26327 44.2787 2.53194 45.2164 2.25226 46.4568C2.19382 46.7155 2.24052 46.9868 2.3821 47.2111C2.52367 47.4354 2.74852 47.5942 3.00721 47.6527C3.2659 47.7113 3.53724 47.6647 3.76157 47.5232C3.98589 47.3816 4.14483 47.1568 4.20343 46.8982C4.37326 46.1449 4.74564 45.6653 5.32257 45.2302C5.89951 44.7951 6.68842 44.4511 7.53546 44.1423C8.38251 43.8335 9.2774 43.564 10.0921 43.1775C10.9068 42.7909 11.7268 42.2432 12.0843 41.281C12.1153 41.1974 12.135 41.11 12.1429 41.0212C12.2266 40.091 12.1976 39.4372 12.1976 38.6697C12.1973 38.4872 12.1471 38.3083 12.0524 38.1524C11.9577 37.9964 11.8222 37.8693 11.6605 37.7849C11.8235 37.8703 11.6111 37.743 11.4437 37.572C11.2762 37.401 11.0678 37.1624 10.8714 36.904C10.4787 36.3872 10.1712 35.7202 10.1546 35.5642C10.1329 35.362 10.05 35.1712 9.91703 35.0173C9.78407 34.8634 9.60736 34.7537 9.41046 34.7029C9.37761 34.6571 9.27137 34.4876 9.21711 34.0368C9.20429 33.9294 9.22097 33.876 9.23664 33.8454C9.39541 33.7266 9.51528 33.5633 9.58101 33.3762C9.64674 33.1891 9.65536 32.9867 9.60578 32.7947C9.31553 31.6776 9.17853 30.9781 9.19953 30.1091C9.22523 29.0572 9.53417 28.2611 10.1292 27.6872C10.7224 27.1151 11.6699 26.7075 13.1839 26.6775C14.1877 26.6799 14.7039 27.0004 14.7679 27.113C14.8437 27.2463 14.9493 27.3604 15.0763 27.4464C15.2033 27.5325 15.3484 27.5881 15.5003 27.6091C16.2298 27.7104 16.5491 27.9839 16.8089 28.4177C17.0687 28.8515 17.2056 29.506 17.1976 30.199C17.1838 31.3317 17.0026 32.1883 16.8226 32.7282C16.7561 32.9276 16.7541 33.1428 16.8168 33.3433C16.8796 33.5439 17.0039 33.7196 17.1722 33.8454C17.1876 33.8756 17.2046 33.9278 17.1917 34.0349C17.1374 34.4866 17.0308 34.6575 16.9984 34.7029C16.8015 34.7537 16.6247 34.8634 16.4918 35.0173C16.3588 35.1712 16.276 35.362 16.2542 35.5642C16.2379 35.7175 15.9283 36.3832 15.5335 36.9001C15.3361 37.1586 15.1277 37.3968 14.9593 37.5681C14.7909 37.7393 14.577 37.8676 14.7386 37.7829C14.5769 37.8678 14.4416 37.9953 14.3473 38.1516C14.253 38.3079 14.2032 38.4871 14.2034 38.6697C14.2034 39.4354 14.1704 40.091 14.2542 41.0212C14.2673 41.1644 14.311 41.303 14.3824 41.4277C14.4539 41.5524 14.5514 41.6602 14.6683 41.7439C15.0875 42.3902 15.6817 42.8659 16.3343 43.1755C17.149 43.562 18.044 43.8316 18.8909 44.1404C19.7379 44.4491 20.527 44.7951 21.1038 45.2302C21.6807 45.6653 22.0531 46.143 22.223 46.8962C22.2505 47.0257 22.3034 47.1485 22.3787 47.2573C22.4539 47.3662 22.5501 47.4591 22.6615 47.5305C22.773 47.602 22.8975 47.6506 23.0279 47.6735C23.1582 47.6965 23.2919 47.6933 23.421 47.6642C23.5502 47.6351 23.6722 47.5807 23.7802 47.5041C23.8881 47.4275 23.9798 47.3302 24.0498 47.2178C24.1199 47.1055 24.167 46.9804 24.1883 46.8498C24.2096 46.7191 24.2048 46.5855 24.1741 46.4568C23.8945 45.2165 23.1611 44.2767 22.3069 43.6325C21.4528 42.9884 20.4846 42.5932 19.5745 42.2615C18.6645 41.9297 17.8045 41.6596 17.1917 41.3689C16.5959 41.0862 16.3353 40.8285 16.2425 40.6052C16.2068 40.0865 16.207 39.6138 16.2112 39.1111C16.2599 39.0614 16.3287 39.0278 16.3851 38.9704C16.6185 38.733 16.8734 38.4423 17.1234 38.115C17.514 37.6035 17.7931 36.9617 17.9984 36.2868C18.1927 36.1709 18.4157 36.1574 18.5667 35.9646C18.8798 35.5647 19.0701 35.0391 19.1624 34.3708C19.9768 34.0459 20.86 33.7601 21.7054 33.4197C22.7377 33.004 23.8199 32.459 24.2581 31.281C24.2891 31.1974 24.3089 31.11 24.3167 31.0212C24.4004 30.091 24.3694 29.4372 24.3694 28.6697C24.3693 28.4874 24.3194 28.3087 24.2251 28.1527C24.1308 27.9968 23.9956 27.8696 23.8343 27.7849C23.9973 27.8703 23.7849 27.743 23.6175 27.572C23.4501 27.401 23.2416 27.1624 23.0452 26.904C22.6525 26.3872 22.3451 25.7202 22.3284 25.5642C22.3068 25.3611 22.2235 25.1696 22.0898 25.0152C21.9561 24.8609 21.7783 24.7512 21.5804 24.7009C21.5471 24.6543 21.4431 24.4861 21.389 24.0368C21.3759 23.9268 21.3942 23.8732 21.4105 23.8435C21.5689 23.7248 21.6885 23.5618 21.7542 23.3751C21.8199 23.1884 21.8288 22.9864 21.7796 22.7947C21.4894 21.6776 21.3524 20.9781 21.3734 20.1091C21.3991 19.0572 21.708 18.2611 22.303 17.6872C22.8962 17.1151 23.8437 16.7075 25.3577 16.6775C26.3593 16.6806 26.8793 17.0001 26.9437 17.113C27.0193 17.2461 27.1245 17.36 27.2512 17.446C27.3778 17.5321 27.5225 17.5878 27.6741 17.6091C28.4036 17.7104 28.7229 17.9839 28.9827 18.4177C29.2425 18.8515 29.3794 19.504 29.3714 20.197C29.3576 21.3298 29.1764 22.1883 28.9964 22.7282C28.9304 22.9273 28.9286 23.1421 28.9913 23.3423C29.0541 23.5424 29.1782 23.7177 29.346 23.8435C29.3615 23.8733 29.3786 23.925 29.3655 24.0329C29.3655 24.0336 29.3655 24.0342 29.3655 24.0349C29.3112 24.4865 29.2047 24.6555 29.1722 24.7009C28.9753 24.7518 28.7986 24.8615 28.6656 25.0154C28.5327 25.1693 28.4498 25.36 28.428 25.5622C28.4117 25.7156 28.1021 26.3832 27.7073 26.9001C27.5099 27.1586 27.3015 27.3968 27.1331 27.5681C26.9647 27.7393 26.7508 27.8676 26.9124 27.7829C26.7511 27.8677 26.6159 27.9949 26.5216 28.1508C26.4273 28.3067 26.3774 28.4855 26.3773 28.6677C26.3773 29.4334 26.3443 30.089 26.428 31.0193C26.4365 31.1082 26.4569 31.1955 26.4886 31.279C26.9249 32.4502 28.0161 32.9364 29.0335 33.3181C29.7743 33.596 30.5269 33.8309 31.2269 34.0779C31.2291 34.1433 31.2225 34.2041 31.2308 34.2732C31.2308 34.2738 31.2308 34.2745 31.2308 34.2751C31.3171 34.9926 31.5153 35.545 31.8441 35.9646C31.9947 36.1568 32.2153 36.1711 32.4085 36.2868C32.6126 36.9611 32.8906 37.6011 33.2796 38.113C33.5284 38.4404 33.7832 38.7328 34.0159 38.9704C34.0718 39.0274 34.1396 39.0615 34.1878 39.1111C34.1919 39.6203 34.194 40.0977 34.1566 40.6267C34.0561 40.8455 33.8134 41.0943 33.2347 41.3689C32.622 41.6596 31.7619 41.9317 30.8519 42.2634C29.9418 42.5951 28.9717 42.9903 28.1175 43.6345C27.2633 44.2787 26.5319 45.2164 26.2523 46.4568C26.1937 46.7155 26.2404 46.9869 26.3819 47.2113C26.5235 47.4356 26.7484 47.5945 27.0071 47.6531C27.2659 47.7116 27.5373 47.6649 27.7616 47.5234C27.986 47.3818 28.1449 47.1569 28.2034 46.8982C28.3733 46.145 28.7456 45.6653 29.3226 45.2302C29.8995 44.7951 30.6884 44.4511 31.5355 44.1423C32.3825 43.8335 33.2774 43.564 34.0921 43.1775C34.9068 42.7909 35.7268 42.2432 36.0843 41.281C36.1153 41.1974 36.135 41.11 36.1429 41.0212C36.2266 40.091 36.1976 39.4372 36.1976 38.6697C36.1973 38.4872 36.1471 38.3083 36.0524 38.1524C35.9577 37.9964 35.8222 37.8693 35.6605 37.7849C35.8235 37.8703 35.6111 37.743 35.4437 37.572C35.2762 37.401 35.0678 37.1624 34.8714 36.904C34.4787 36.3872 34.1712 35.7202 34.1546 35.5642C34.1329 35.362 34.05 35.1712 33.917 35.0173C33.7841 34.8634 33.6074 34.7537 33.4105 34.7029C33.3776 34.6571 33.2714 34.4876 33.2171 34.0368C33.2166 34.0325 33.2175 34.0313 33.2171 34.0271C33.2812 33.9374 33.33 33.8378 33.3616 33.7322C33.4784 33.6094 33.5621 33.4589 33.6048 33.2949C33.6475 33.131 33.6478 32.9588 33.6058 32.7947C33.3155 31.6776 33.1785 30.9781 33.1995 30.1091C33.2252 29.0572 33.5342 28.2611 34.1292 27.6872C34.7224 27.1151 35.6699 26.7075 37.1839 26.6775C38.1877 26.6799 38.7039 27.0004 38.7679 27.113C38.8437 27.2463 38.9493 27.3604 39.0763 27.4464C39.2033 27.5325 39.3484 27.5881 39.5003 27.6091C40.2298 27.7104 40.5491 27.9839 40.8089 28.4177C41.0687 28.8515 41.2056 29.506 41.1976 30.199C41.1838 31.3317 41.0026 32.1883 40.8226 32.7282C40.7561 32.9276 40.7541 33.1428 40.8168 33.3433C40.8796 33.5439 41.0039 33.7196 41.1722 33.8454C41.1877 33.8753 41.2047 33.927 41.1917 34.0349C41.1374 34.4866 41.0308 34.6575 40.9984 34.7029C40.8015 34.7537 40.6247 34.8634 40.4918 35.0173C40.3588 35.1712 40.276 35.362 40.2542 35.5642C40.2379 35.7175 39.9283 36.3832 39.5335 36.9001C39.3361 37.1586 39.1277 37.3968 38.9593 37.5681C38.7909 37.7393 38.577 37.8676 38.7386 37.7829C38.5769 37.8678 38.4416 37.9953 38.3473 38.1516C38.253 38.3079 38.2032 38.4871 38.2034 38.6697C38.2034 39.4354 38.1704 40.091 38.2542 41.0212C38.2673 41.1644 38.311 41.303 38.3824 41.4277C38.4539 41.5524 38.5514 41.6602 38.6683 41.7439C39.0875 42.3902 39.6817 42.8659 40.3343 43.1755C41.149 43.562 42.044 43.8316 42.8909 44.1404C43.7379 44.4491 44.527 44.7951 45.1038 45.2302C45.6807 45.6653 46.0531 46.143 46.223 46.8962C46.2505 47.0257 46.3034 47.1485 46.3787 47.2573C46.4539 47.3662 46.5501 47.4591 46.6615 47.5305C46.773 47.602 46.8975 47.6506 47.0279 47.6735C47.1582 47.6965 47.2919 47.6933 47.421 47.6642C47.5502 47.6351 47.6722 47.5807 47.7802 47.5041C47.8881 47.4275 47.9798 47.3302 48.0498 47.2178C48.1199 47.1055 48.167 46.9804 48.1883 46.8498C48.2096 46.7191 48.2048 46.5855 48.1741 46.4568C47.8945 45.2165 47.1611 44.2767 46.3069 43.6325C45.4528 42.9884 44.4846 42.5932 43.5745 42.2615C42.6645 41.9297 41.8045 41.6596 41.1917 41.3689C40.5959 41.0862 40.3353 40.8285 40.2425 40.6052C40.2068 40.0865 40.207 39.6138 40.2112 39.1111C40.2599 39.0614 40.3287 39.0278 40.3851 38.9704C40.6185 38.733 40.8734 38.4423 41.1234 38.115C41.514 37.6035 41.7931 36.9617 41.9984 36.2868C42.1927 36.1709 42.4157 36.1574 42.5667 35.9646C42.8953 35.545 43.0916 34.9917 43.178 34.2751V34.2732C43.2532 33.6462 43.0704 33.1696 42.8089 32.779C42.997 32.0746 43.1844 31.3067 43.1976 30.2224C43.2085 29.2784 43.0549 28.274 42.5257 27.3904C42.0345 26.5701 41.1353 25.9468 40.012 25.7165C39.3003 25.0077 38.302 24.6755 37.178 24.6755C37.1722 24.6755 37.1663 24.6755 37.1605 24.6755C35.2808 24.7098 33.7707 25.2562 32.7425 26.2478C31.7143 27.2394 31.2348 28.6162 31.1995 30.0603C31.1995 30.0609 31.1995 30.0616 31.1995 30.0622C31.1833 30.7355 31.2924 31.3693 31.43 32.0134C30.8193 31.8097 30.2307 31.6311 29.7347 31.445C28.9042 31.1335 28.5121 30.8092 28.4163 30.615C28.3799 30.0922 28.3808 29.6165 28.3851 29.1111C28.4337 29.0614 28.5025 29.0278 28.5589 28.9704C28.7924 28.733 29.0472 28.4403 29.2972 28.113C29.6878 27.6016 29.9669 26.9615 30.1722 26.2868C30.3666 26.1709 30.5895 26.1574 30.7405 25.9646C31.0695 25.5445 31.2656 24.9908 31.3519 24.2732C31.3988 23.8843 31.3397 23.5591 31.2308 23.2712C32.0122 22.9743 32.8423 22.7051 33.6331 22.3786C34.6267 21.9685 35.6604 21.4207 36.0843 20.281C36.1153 20.1974 36.135 20.11 36.1429 20.0212C36.2266 19.091 36.1976 18.4372 36.1976 17.6697C36.1973 17.4872 36.1471 17.3083 36.0524 17.1524C35.9577 16.9964 35.8222 16.8693 35.6605 16.7849C35.8235 16.8703 35.6111 16.743 35.4437 16.572C35.2762 16.401 35.0678 16.1624 34.8714 15.904C34.4787 15.3872 34.1712 14.7202 34.1546 14.5642C34.1329 14.362 34.05 14.1712 33.917 14.0173C33.7841 13.8634 33.6074 13.7537 33.4105 13.7029C33.3776 13.6571 33.2714 13.4876 33.2171 13.0368C33.2043 12.9294 33.221 12.876 33.2366 12.8454C33.3954 12.7266 33.5153 12.5633 33.581 12.3762C33.6467 12.1891 33.6554 11.9867 33.6058 11.7947C33.3155 10.6776 33.1785 9.97807 33.1995 9.10911C33.2252 8.05721 33.5342 7.26111 34.1292 6.68723C34.7224 6.11514 35.6699 5.7075 37.1839 5.67747C38.1877 5.67988 38.7039 6.00037 38.7679 6.11301C38.8437 6.24634 38.9493 6.36042 39.0763 6.44644C39.2033 6.53247 39.3484 6.58812 39.5003 6.60911C40.2298 6.71038 40.5491 6.98387 40.8089 7.4177C41.0687 7.85154 41.2056 8.50596 41.1976 9.19895C41.1838 10.3317 41.0026 11.1883 40.8226 11.7282C40.7561 11.9276 40.7541 12.1428 40.8168 12.3433C40.8796 12.5439 41.0039 12.7196 41.1722 12.8454C41.1877 12.8753 41.2047 12.927 41.1917 13.0349C41.1374 13.4866 41.0308 13.6575 40.9984 13.7029C40.8015 13.7537 40.6247 13.8634 40.4918 14.0173C40.3588 14.1712 40.276 14.362 40.2542 14.5642C40.2379 14.7175 39.9283 15.3832 39.5335 15.9001C39.3361 16.1586 39.1277 16.3968 38.9593 16.5681C38.7909 16.7393 38.577 16.8676 38.7386 16.7829C38.5769 16.8678 38.4416 16.9953 38.3473 17.1516C38.253 17.3079 38.2032 17.4871 38.2034 17.6697C38.2034 18.4354 38.1704 19.091 38.2542 20.0212C38.2673 20.1644 38.311 20.303 38.3824 20.4277C38.4539 20.5524 38.5514 20.6602 38.6683 20.7439C39.0875 21.3902 39.6817 21.8659 40.3343 22.1755C41.149 22.562 42.044 22.8316 42.8909 23.1404C43.7379 23.4491 44.527 23.7951 45.1038 24.2302C45.6807 24.6653 46.0531 25.143 46.223 25.8962C46.2505 26.0257 46.3034 26.1485 46.3787 26.2573C46.4539 26.3662 46.5501 26.4591 46.6615 26.5305C46.773 26.602 46.8975 26.6506 47.0279 26.6735C47.1582 26.6965 47.2919 26.6933 47.421 26.6642C47.5502 26.6351 47.6722 26.5807 47.7802 26.5041C47.8881 26.4275 47.9798 26.3302 48.0498 26.2178C48.1199 26.1055 48.167 25.9804 48.1883 25.8498C48.2096 25.7191 48.2048 25.5855 48.1741 25.4568C47.8945 24.2165 47.1611 23.2767 46.3069 22.6325C45.4528 21.9884 44.4846 21.5932 43.5745 21.2615C42.6645 20.9297 41.8045 20.6596 41.1917 20.3689C40.5959 20.0862 40.3353 19.8285 40.2425 19.6052C40.2068 19.0865 40.207 18.6138 40.2112 18.1111C40.2599 18.0614 40.3287 18.0278 40.3851 17.9704C40.6185 17.733 40.8734 17.4423 41.1234 17.115C41.514 16.6035 41.7931 15.9617 41.9984 15.2868C42.1927 15.1709 42.4157 15.1574 42.5667 14.9646C42.8953 14.545 43.0916 13.9917 43.178 13.2751V13.2732C43.2532 12.6462 43.0704 12.1696 42.8089 11.779C42.997 11.0746 43.1844 10.3067 43.1976 9.22239C43.2085 8.27839 43.0549 7.27403 42.5257 6.39036C42.0345 5.57014 41.1353 4.9468 40.012 4.71653C39.3003 4.00769 38.302 3.67551 37.178 3.67551C37.1722 3.67546 37.1663 3.67546 37.1605 3.67551V3.67551Z" fill="white"/>
</svg>
